<svg xmlns="http://www.w3.org/2000/svg" xmlns:xlink="http://www.w3.org/1999/xlink" width="500" zoomAndPan="magnify" viewBox="0 0 375 374.999991" height="500" preserveAspectRatio="xMidYMid meet" version="1.0"><defs><filter x="0%" y="0%" width="100%" height="100%" id="f3de0f5fb9"><feColorMatrix values="0 0 0 0 1 0 0 0 0 1 0 0 0 0 1 0 0 0 1 0" color-interpolation-filters="sRGB"/></filter><mask id="06fa5a4934"><g filter="url(#f3de0f5fb9)"><rect x="-37.5" width="450" fill="#000000" y="-37.499999" height="449.999989" fill-opacity="0.28"/></g></mask><clipPath id="44ff283f1f"><path d="M 1 0.28125 L 150 0.28125 L 150 157.480469 L 1 157.480469 Z M 1 0.28125 " clip-rule="nonzero"/></clipPath><clipPath id="9dd60e6a4d"><rect x="0" width="151" y="0" height="158"/></clipPath><mask id="de2fd43e92"><g filter="url(#f3de0f5fb9)"><rect x="-37.5" width="450" fill="#000000" y="-37.499999" height="449.999989" fill-opacity="0.1"/></g></mask><clipPath id="d0acd9be33"><path d="M 1 0.28125 L 75 0.28125 L 75 122.441406 L 1 122.441406 Z M 1 0.28125 " clip-rule="nonzero"/></clipPath><clipPath id="2436a8e094"><rect x="0" width="76" y="0" height="123"/></clipPath><mask id="9d3afa8a08"><g filter="url(#f3de0f5fb9)"><rect x="-37.5" width="450" fill="#000000" y="-37.499999" height="449.999989" fill-opacity="0.5"/></g></mask><clipPath id="39fc297748"><path d="M 1 0.28125 L 76.480469 0.28125 L 76.480469 157.480469 L 1 157.480469 Z M 1 0.28125 " clip-rule="nonzero"/></clipPath><clipPath id="f1195584f8"><rect x="0" width="77" y="0" height="158"/></clipPath><mask id="9891d1778c"><g filter="url(#f3de0f5fb9)"><rect x="-37.5" width="450" fill="#000000" y="-37.499999" height="449.999989" fill-opacity="0.21"/></g></mask><clipPath id="48ebe5f698"><path d="M 0.519531 0.121094 L 65 0.121094 L 65 75 L 0.519531 75 Z M 0.519531 0.121094 " clip-rule="nonzero"/></clipPath><clipPath id="ba00450a27"><rect x="0" width="66" y="0" height="75"/></clipPath><mask id="e52b3fef13"><g filter="url(#f3de0f5fb9)"><rect x="-37.5" width="450" fill="#000000" y="-37.499999" height="449.999989" fill-opacity="0.51"/></g></mask><clipPath id="fe2e0c7878"><path d="M 1 0.28125 L 70 0.28125 L 70 157.480469 L 1 157.480469 Z M 1 0.28125 " clip-rule="nonzero"/></clipPath><clipPath id="857ab86427"><rect x="0" width="70" y="0" height="158"/></clipPath><mask id="59f693a060"><g filter="url(#f3de0f5fb9)"><rect x="-37.5" width="450" fill="#000000" y="-37.499999" height="449.999989" fill-opacity="0.42"/></g></mask><clipPath id="3498ab6e8a"><path d="M 0.640625 0.519531 L 103.601562 0.519531 L 103.601562 116.199219 L 0.640625 116.199219 Z M 0.640625 0.519531 " clip-rule="nonzero"/></clipPath><clipPath id="469338b173"><rect x="0" width="104" y="0" height="117"/></clipPath></defs><path fill="#d11d4d" d="M 262.480469 171.347656 L 259.808594 144.96875 C 262.019531 144.40625 263.652344 142.40625 263.652344 140.023438 C 263.652344 137.28125 261.5 135.054688 258.789062 134.921875 L 257.308594 120.273438 C 258.609375 119.675781 259.488281 118.3125 259.351562 116.753906 C 259.210938 115.089844 257.871094 113.722656 256.210938 113.550781 C 255.332031 113.460938 254.507812 113.695312 253.847656 114.144531 C 250.234375 111.710938 243.3125 107.339844 234.253906 102.988281 C 233.554688 102.652344 232.832031 102.316406 232.089844 101.972656 C 232.335938 101.066406 232.367188 100.074219 232.003906 99.023438 C 231.324219 97.058594 229.53125 95.636719 227.457031 95.515625 C 225.460938 95.40625 223.695312 96.445312 222.761719 98.03125 C 211.257812 93.613281 196.925781 89.738281 181.804688 89.585938 C 176.804688 89.542969 171.757812 90.03125 166.683594 91.042969 C 166.15625 91.144531 165.628906 91.257812 165.097656 91.375 C 164.324219 89.535156 162.503906 88.242188 160.382812 88.242188 C 157.5625 88.242188 155.269531 90.535156 155.269531 93.359375 C 155.269531 93.632812 155.300781 93.902344 155.339844 94.164062 C 152.617188 95.117188 149.890625 96.21875 147.167969 97.476562 C 137.621094 101.875 129.972656 107.242188 124.535156 111.703125 C 123.519531 110.960938 122.222656 110.574219 120.828125 110.761719 C 118.523438 111.066406 116.6875 112.949219 116.4375 115.257812 C 116.105469 118.335938 118.507812 120.941406 121.519531 120.941406 C 123.019531 120.941406 124.363281 120.289062 125.300781 119.261719 L 131.511719 123.394531 C 127.640625 124.300781 123.667969 125.597656 119.617188 127.328125 L 160.9375 150.945312 C 162.730469 151.972656 164.257812 153.410156 165.394531 155.144531 L 181.332031 179.488281 C 182.582031 181.394531 182.53125 183.867188 181.210938 185.722656 L 172.628906 197.769531 L 177.953125 185.679688 C 178.769531 183.828125 178.507812 181.683594 177.28125 180.082031 L 162.5 160.863281 L 162.265625 160.554688 C 160.480469 158.160156 157.929688 156.441406 155.035156 155.699219 L 142.769531 152.53125 L 108.726562 143.734375 C 108.722656 143.730469 108.71875 143.730469 108.71875 143.730469 C 108.71875 143.730469 108.71875 143.730469 108.71875 143.734375 C 108.71875 143.734375 108.71875 143.742188 108.722656 143.746094 C 110.941406 154.332031 115.472656 168.117188 113.433594 175.855469 C 111.394531 183.621094 100.054688 197.929688 94.027344 205.148438 C 92.285156 207.238281 93.226562 210.429688 95.828125 211.242188 C 99.503906 212.386719 104.109375 213.898438 106.695312 215.042969 C 109.3125 216.195312 108.636719 219.378906 107.496094 222.015625 C 106.5625 224.164062 107.789062 226.636719 110.058594 227.21875 L 115.683594 228.664062 L 111.382812 232.449219 C 110.257812 233.4375 110.355469 235.25 111.613281 236.058594 C 114.203125 237.71875 117.210938 241.550781 114.839844 250.152344 C 111.050781 263.914062 120.75 263.863281 145.015625 265.019531 C 145.570312 265.042969 146.105469 265.085938 146.613281 265.148438 C 167.402344 267.644531 145.015625 298.179688 143.546875 300.148438 L 143.480469 300.238281 C 143.476562 300.242188 143.476562 300.25 143.472656 300.25 C 178.464844 277.773438 210.898438 269.355469 241.851562 269.0625 C 241.851562 269.0625 238.179688 261.644531 235.859375 252.273438 C 237.792969 251.625 239.210938 249.859375 239.339844 247.738281 C 239.511719 244.902344 237.179688 242.367188 234.339844 242.3125 C 233.378906 242.292969 232.480469 242.542969 231.710938 242.984375 L 209.972656 215.40625 C 210.085938 215.285156 210.195312 215.15625 210.292969 215.023438 L 230.886719 226.402344 C 230.550781 227.3125 230.449219 228.328125 230.714844 229.402344 C 231.238281 231.519531 233.085938 233.101562 235.253906 233.273438 C 238.269531 233.515625 240.792969 231.140625 240.792969 228.175781 C 240.792969 226.3125 239.789062 224.683594 238.292969 223.789062 C 240.675781 218.308594 243.996094 211.613281 247.4375 205.011719 C 248.019531 203.898438 248.605469 202.785156 249.1875 201.679688 C 249.808594 201.847656 250.5 201.847656 251.234375 201.515625 C 252.300781 201.039062 253.058594 200.015625 253.136719 198.851562 C 253.207031 197.824219 252.777344 196.898438 252.078125 196.277344 C 255.355469 190.203125 258.382812 184.785156 260.394531 181.21875 C 261.128906 181.5 261.941406 181.625 262.792969 181.53125 C 265.285156 181.25 267.246094 179.140625 267.339844 176.636719 C 267.441406 173.8125 265.25 171.484375 262.480469 171.347656 Z M 255.804688 120.597656 L 257.269531 135.074219 C 256.441406 135.285156 255.691406 135.703125 255.078125 136.265625 L 239.386719 123.667969 C 239.570312 123.265625 239.675781 122.820312 239.675781 122.351562 C 239.675781 122.265625 239.671875 122.179688 239.667969 122.097656 L 252.601562 118.496094 C 253.148438 119.726562 254.375 120.585938 255.804688 120.597656 Z M 253.527344 141.03125 L 233.910156 148.171875 C 232.714844 145.398438 230.621094 143.105469 227.984375 141.667969 L 235.703125 125.390625 C 235.96875 125.460938 236.242188 125.503906 236.523438 125.503906 C 237.242188 125.503906 237.898438 125.261719 238.429688 124.859375 L 254.121094 137.457031 C 253.683594 138.210938 253.425781 139.085938 253.425781 140.023438 C 253.425781 140.367188 253.460938 140.707031 253.527344 141.03125 Z M 232.867188 160.761719 L 257.453125 174.632812 C 257.246094 175.175781 257.128906 175.757812 257.121094 176.371094 L 240.351562 178.652344 L 235.203125 179.351562 C 234.738281 178.1875 233.601562 177.367188 232.277344 177.367188 C 232.132812 177.367188 231.992188 177.378906 231.859375 177.398438 L 227.210938 165.707031 C 228.828125 164.953125 230.273438 163.886719 231.460938 162.585938 C 231.984375 162.023438 232.453125 161.414062 232.867188 160.761719 Z M 231.453125 103.398438 C 241.347656 107.972656 248.894531 112.679688 252.785156 115.28125 C 252.488281 115.785156 252.316406 116.367188 252.300781 116.992188 L 239.171875 120.644531 C 238.613281 119.773438 237.636719 119.199219 236.523438 119.199219 C 236.324219 119.199219 236.125 119.222656 235.933594 119.257812 L 229.847656 104.972656 C 230.488281 104.574219 231.039062 104.035156 231.453125 103.398438 Z M 227.386719 105.726562 C 227.75 105.710938 228.101562 105.65625 228.441406 105.570312 L 234.542969 119.902344 C 233.832031 120.480469 233.375 121.359375 233.375 122.351562 C 233.375 123.253906 233.757812 124.070312 234.367188 124.644531 L 226.601562 141.011719 C 225.6875 140.640625 224.71875 140.367188 223.714844 140.203125 Z M 223.378906 104.054688 C 224.035156 104.777344 224.894531 105.308594 225.867188 105.5625 L 222.195312 140.039062 C 221.972656 140.027344 221.753906 140.023438 221.53125 140.023438 C 218.046875 140.023438 214.871094 141.34375 212.480469 143.515625 L 195.570312 126.886719 C 196.410156 125.976562 196.925781 124.761719 196.925781 123.425781 C 196.925781 122.863281 196.832031 122.328125 196.667969 121.824219 Z M 161.351562 225.339844 C 161.6875 225.460938 162.046875 225.527344 162.421875 225.527344 C 163.175781 225.527344 163.859375 225.265625 164.402344 224.832031 L 179.949219 236.585938 C 179.832031 236.863281 179.753906 237.164062 179.71875 237.472656 L 162.21875 239.863281 C 161.800781 238.746094 160.761719 237.929688 159.519531 237.832031 C 159.40625 233.867188 159.976562 229.667969 161.351562 225.339844 Z M 165.554688 222.015625 L 201.492188 213.785156 C 201.691406 214.292969 201.96875 214.765625 202.3125 215.175781 L 184.335938 235.039062 C 183.894531 234.800781 183.390625 234.667969 182.851562 234.667969 C 182.101562 234.667969 181.414062 234.929688 180.875 235.367188 L 165.324219 223.613281 C 165.488281 223.234375 165.578125 222.816406 165.578125 222.378906 C 165.578125 222.253906 165.566406 222.132812 165.554688 222.015625 Z M 188.410156 268.097656 C 174.234375 266.65625 163.222656 257.121094 160.28125 243.953125 C 161.402344 243.574219 162.234375 242.585938 162.394531 241.382812 L 179.925781 238.992188 C 180.390625 240.152344 181.523438 240.972656 182.851562 240.972656 C 182.867188 240.972656 182.882812 240.96875 182.894531 240.96875 L 189.449219 265.695312 C 188.8125 266.273438 188.40625 267.105469 188.40625 268.03125 C 188.40625 268.054688 188.410156 268.074219 188.410156 268.097656 Z M 184.375 240.578125 C 185.34375 240.042969 186.003906 239.007812 186.003906 237.816406 C 186.003906 237.167969 185.804688 236.566406 185.472656 236.066406 L 203.453125 216.195312 C 203.695312 216.351562 203.953125 216.496094 204.226562 216.609375 L 191.59375 264.882812 L 191.5625 264.882812 C 191.308594 264.882812 191.070312 264.914062 190.835938 264.96875 Z M 194.703125 268.203125 C 194.707031 268.148438 194.710938 268.089844 194.710938 268.03125 C 194.710938 267.472656 194.5625 266.945312 194.308594 266.492188 L 210.210938 245.136719 C 210.566406 245.273438 210.953125 245.355469 211.355469 245.355469 C 212.515625 245.355469 213.523438 244.726562 214.070312 243.800781 L 229.136719 247.675781 C 229.191406 248.8125 229.613281 249.851562 230.289062 250.675781 C 223.082031 257.980469 213.488281 264.511719 201.039062 267.289062 C 198.890625 267.769531 196.773438 268.070312 194.703125 268.203125 Z M 208.207031 242.203125 C 208.207031 242.984375 208.492188 243.695312 208.964844 244.25 L 193.234375 265.367188 C 193.179688 265.332031 193.128906 265.296875 193.074219 265.269531 L 205.707031 216.996094 C 205.882812 217.015625 206.0625 217.027344 206.246094 217.027344 L 206.265625 217.027344 L 210.074219 239.324219 C 208.972656 239.820312 208.207031 240.917969 208.207031 242.203125 Z M 206.246094 206.796875 C 205.621094 206.796875 205.023438 206.917969 204.472656 207.121094 L 193.15625 186.625 C 193.742188 186.046875 194.109375 185.25 194.109375 184.363281 C 194.109375 183.765625 193.941406 183.207031 193.652344 182.730469 L 212.613281 163.585938 C 213.984375 164.796875 215.605469 165.734375 217.386719 166.308594 L 206.785156 206.828125 C 206.605469 206.808594 206.429688 206.796875 206.246094 206.796875 Z M 175.621094 145.261719 L 183.332031 135.546875 L 189.378906 127.921875 C 190.101562 128.316406 190.929688 128.539062 191.816406 128.539062 C 192.746094 128.539062 193.617188 128.285156 194.367188 127.847656 L 211.410156 144.609375 C 211.136719 144.921875 210.875 145.246094 210.636719 145.582031 C 209.375 147.308594 208.523438 149.347656 208.203125 151.5625 L 176.667969 148.804688 C 176.679688 148.664062 176.691406 148.523438 176.691406 148.378906 C 176.691406 147.203125 176.289062 146.125 175.621094 145.261719 Z M 176.308594 150.308594 L 208.070312 153.085938 C 208.070312 153.222656 208.0625 153.355469 208.0625 153.492188 C 208.0625 154.894531 208.277344 156.246094 208.675781 157.519531 L 198.558594 161.332031 C 198.019531 160.363281 196.988281 159.707031 195.800781 159.707031 C 194.925781 159.707031 194.136719 160.0625 193.566406 160.640625 L 176.285156 150.375 C 176.292969 150.355469 176.300781 150.332031 176.308594 150.308594 Z M 196.222656 165.976562 C 197.761719 165.773438 198.953125 164.457031 198.953125 162.859375 L 198.953125 162.816406 L 209.21875 158.949219 C 209.796875 160.257812 210.582031 161.457031 211.523438 162.511719 L 192.566406 181.65625 C 192.527344 181.632812 192.492188 181.609375 192.449219 181.585938 Z M 195.96875 120.453125 C 195.246094 119.441406 194.164062 118.703125 192.902344 118.429688 L 193.578125 106.351562 C 194.867188 106.105469 195.871094 105.082031 196.089844 103.785156 L 222.183594 101.773438 C 222.265625 102.125 222.382812 102.464844 222.53125 102.785156 Z M 165.46875 92.820312 C 165.726562 92.765625 165.988281 92.710938 166.246094 92.65625 C 171.171875 91.636719 176.371094 91.058594 181.785156 91.117188 C 196.417969 91.261719 210.394531 94.925781 222.183594 99.472656 C 222.125 99.722656 222.085938 99.984375 222.066406 100.25 L 195.976562 102.257812 C 195.558594 101.007812 194.378906 100.105469 192.988281 100.105469 C 191.839844 100.105469 190.839844 100.722656 190.289062 101.640625 L 165.863281 94.222656 L 165.4375 94.09375 C 165.472656 93.851562 165.5 93.609375 165.5 93.359375 C 165.5 93.175781 165.488281 92.996094 165.46875 92.820312 Z M 164.996094 95.554688 L 165.539062 95.71875 L 189.84375 103.101562 C 189.839844 103.152344 189.835938 103.203125 189.835938 103.257812 C 189.835938 104.671875 190.769531 105.867188 192.054688 106.269531 L 191.378906 118.335938 C 190.183594 118.433594 189.105469 118.945312 188.289062 119.726562 L 165.277344 97.09375 L 164.523438 96.355469 C 164.703125 96.105469 164.859375 95.839844 164.996094 95.554688 Z M 155.78125 95.574219 C 156.261719 96.570312 157.050781 97.382812 158.027344 97.890625 L 151.601562 116.695312 C 151.515625 116.6875 151.425781 116.679688 151.339844 116.679688 C 150.136719 116.679688 149.089844 117.351562 148.558594 118.34375 L 126.625 115.675781 C 126.59375 114.59375 126.230469 113.605469 125.628906 112.792969 C 132.074219 107.519531 142.574219 100.214844 155.78125 95.574219 Z M 167.402344 145.433594 L 126.148438 117.988281 C 126.265625 117.734375 126.363281 117.46875 126.441406 117.195312 L 148.183594 119.835938 C 148.1875 121.574219 149.601562 122.984375 151.339844 122.984375 C 151.726562 122.984375 152.09375 122.910156 152.4375 122.78125 L 167.800781 144.941406 C 167.660156 145.097656 167.523438 145.261719 167.402344 145.433594 Z M 168.988281 143.976562 L 153.699219 121.914062 C 154.1875 121.359375 154.488281 120.632812 154.488281 119.832031 C 154.488281 118.722656 153.917969 117.75 153.050781 117.1875 L 159.472656 98.386719 C 159.769531 98.4375 160.074219 98.472656 160.382812 98.472656 C 160.464844 98.472656 160.546875 98.460938 160.628906 98.457031 L 169.695312 143.628906 C 169.449219 143.726562 169.214844 143.84375 168.988281 143.976562 Z M 171.183594 143.285156 L 162.128906 98.160156 C 162.605469 97.984375 163.050781 97.742188 163.449219 97.445312 L 164.984375 98.953125 L 187.34375 120.941406 C 186.933594 121.679688 186.699219 122.523438 186.699219 123.425781 C 186.699219 124.816406 187.257812 126.074219 188.160156 127 L 181.996094 134.765625 L 174.511719 144.199219 C 173.679688 143.613281 172.671875 143.265625 171.578125 143.265625 C 171.445312 143.265625 171.3125 143.277344 171.183594 143.285156 Z M 174.390625 152.644531 C 174.800781 152.375 175.164062 152.046875 175.480469 151.675781 L 192.78125 161.957031 C 192.699219 162.242188 192.648438 162.542969 192.648438 162.859375 C 192.648438 164.207031 193.5 165.355469 194.691406 165.804688 L 190.96875 181.210938 L 190.957031 181.210938 C 190.703125 181.210938 190.453125 181.246094 190.214844 181.304688 Z M 180.179688 198.394531 C 184.109375 194.898438 187.1875 191.109375 189.492188 187.15625 C 189.933594 187.382812 190.429688 187.515625 190.957031 187.515625 C 191.261719 187.515625 191.550781 187.46875 191.832031 187.390625 L 203.132812 207.859375 C 201.917969 208.796875 201.132812 210.261719 201.132812 211.910156 C 201.132812 212.042969 201.140625 212.167969 201.148438 212.296875 L 165.003906 220.570312 C 164.667969 220.09375 164.210938 219.714844 163.671875 219.484375 C 166.964844 212.554688 172.328125 205.398438 180.179688 198.394531 Z M 230.511719 243.933594 C 229.933594 244.546875 229.511719 245.300781 229.292969 246.136719 L 214.503906 242.332031 C 214.503906 242.289062 214.511719 242.246094 214.511719 242.203125 C 214.511719 240.535156 213.21875 239.175781 211.578125 239.0625 L 207.773438 216.792969 C 208.125 216.683594 208.457031 216.53125 208.773438 216.351562 Z M 208.882812 207.539062 C 208.683594 207.417969 208.476562 207.304688 208.265625 207.214844 L 218.867188 166.695312 C 219.726562 166.871094 220.621094 166.960938 221.53125 166.960938 C 223.019531 166.960938 224.453125 166.71875 225.789062 166.273438 L 230.4375 177.964844 C 229.644531 178.535156 229.125 179.464844 229.125 180.519531 C 229.125 181.21875 229.355469 181.863281 229.738281 182.382812 Z M 231.628906 225.066406 L 211.035156 213.6875 C 211.242188 213.132812 211.355469 212.539062 211.355469 211.910156 C 211.355469 210.605469 210.863281 209.417969 210.058594 208.511719 L 230.914062 183.359375 C 231.148438 183.46875 231.394531 183.558594 231.660156 183.613281 L 234.546875 223.195312 C 233.367188 223.460938 232.34375 224.136719 231.628906 225.066406 Z M 247.019531 202.519531 C 243.234375 209.722656 239.492188 217.1875 236.875 223.214844 C 236.617188 223.148438 236.347656 223.105469 236.074219 223.085938 L 233.1875 183.535156 C 233.425781 183.464844 233.652344 183.363281 233.863281 183.238281 L 245.523438 195.160156 L 247.308594 196.988281 C 247.015625 197.46875 246.839844 198.03125 246.839844 198.636719 C 246.839844 199.550781 247.230469 200.367188 247.847656 200.945312 C 247.570312 201.46875 247.292969 201.992188 247.019531 202.519531 Z M 250.71875 195.570312 C 250.484375 195.515625 250.242188 195.484375 249.992188 195.484375 C 249.410156 195.484375 248.867188 195.644531 248.402344 195.917969 L 244.808594 192.242188 L 234.957031 182.167969 C 235.195312 181.78125 235.355469 181.339844 235.40625 180.867188 L 240.9375 180.113281 L 257.324219 177.886719 C 257.625 178.917969 258.246094 179.8125 259.066406 180.460938 C 257.046875 184.039062 254.011719 189.476562 250.71875 195.570312 Z M 258.207031 173.300781 L 233.621094 159.433594 C 234.503906 157.640625 235.003906 155.625 235.003906 153.492188 C 235.003906 152.144531 234.800781 150.839844 234.429688 149.613281 L 254.046875 142.472656 C 254.878906 143.988281 256.457031 145.03125 258.289062 145.121094 L 260.957031 171.5 C 259.851562 171.785156 258.890625 172.425781 258.207031 173.300781 Z M 258.207031 173.300781 " fill-opacity="1" fill-rule="nonzero"/><path fill="#fff743" d="M 178.402344 118.824219 C 178.402344 119.042969 178.359375 119.25 178.277344 119.449219 C 178.195312 119.648438 178.078125 119.824219 177.925781 119.976562 C 177.773438 120.128906 177.597656 120.246094 177.398438 120.328125 C 177.199219 120.414062 176.988281 120.453125 176.773438 120.453125 C 176.558594 120.453125 176.351562 120.414062 176.152344 120.328125 C 175.953125 120.246094 175.773438 120.128906 175.621094 119.976562 C 175.46875 119.824219 175.351562 119.648438 175.269531 119.449219 C 175.1875 119.25 175.144531 119.042969 175.144531 118.824219 C 175.144531 118.609375 175.1875 118.402344 175.269531 118.203125 C 175.351562 118.003906 175.46875 117.828125 175.621094 117.671875 C 175.773438 117.519531 175.953125 117.402344 176.152344 117.320312 C 176.351562 117.238281 176.558594 117.195312 176.773438 117.195312 C 176.988281 117.195312 177.199219 117.238281 177.398438 117.320312 C 177.597656 117.402344 177.773438 117.519531 177.925781 117.671875 C 178.078125 117.828125 178.195312 118.003906 178.277344 118.203125 C 178.359375 118.402344 178.402344 118.609375 178.402344 118.824219 Z M 178.402344 118.824219 " fill-opacity="1" fill-rule="nonzero"/><path fill="#fff743" d="M 188.164062 95.925781 C 188.164062 96.164062 188.117188 96.394531 188.023438 96.617188 C 187.933594 96.839844 187.800781 97.035156 187.632812 97.203125 C 187.460938 97.375 187.265625 97.503906 187.042969 97.597656 C 186.824219 97.6875 186.59375 97.734375 186.351562 97.734375 C 186.113281 97.734375 185.878906 97.6875 185.660156 97.597656 C 185.4375 97.503906 185.242188 97.375 185.070312 97.203125 C 184.902344 97.035156 184.769531 96.839844 184.679688 96.617188 C 184.585938 96.394531 184.542969 96.164062 184.542969 95.925781 C 184.542969 95.683594 184.585938 95.453125 184.679688 95.230469 C 184.769531 95.011719 184.902344 94.8125 185.070312 94.644531 C 185.242188 94.476562 185.4375 94.34375 185.660156 94.253906 C 185.878906 94.160156 186.113281 94.113281 186.351562 94.113281 C 186.59375 94.113281 186.824219 94.160156 187.042969 94.253906 C 187.265625 94.34375 187.460938 94.476562 187.632812 94.644531 C 187.800781 94.8125 187.933594 95.011719 188.023438 95.230469 C 188.117188 95.453125 188.164062 95.683594 188.164062 95.925781 Z M 188.164062 95.925781 " fill-opacity="1" fill-rule="nonzero"/><path fill="#fff743" d="M 222.183594 81.242188 C 222.183594 81.566406 222.152344 81.886719 222.089844 82.207031 C 222.027344 82.523438 221.933594 82.832031 221.808594 83.132812 C 221.683594 83.433594 221.53125 83.71875 221.351562 83.988281 C 221.171875 84.257812 220.96875 84.507812 220.738281 84.738281 C 220.507812 84.96875 220.257812 85.171875 219.988281 85.351562 C 219.71875 85.53125 219.433594 85.683594 219.132812 85.808594 C 218.832031 85.933594 218.523438 86.027344 218.207031 86.089844 C 217.886719 86.152344 217.566406 86.183594 217.242188 86.183594 C 216.917969 86.183594 216.597656 86.152344 216.277344 86.089844 C 215.960938 86.027344 215.648438 85.933594 215.351562 85.808594 C 215.050781 85.683594 214.765625 85.53125 214.496094 85.351562 C 214.226562 85.171875 213.976562 84.96875 213.746094 84.738281 C 213.515625 84.507812 213.3125 84.257812 213.132812 83.988281 C 212.953125 83.71875 212.800781 83.433594 212.675781 83.132812 C 212.550781 82.832031 212.457031 82.523438 212.394531 82.207031 C 212.332031 81.886719 212.296875 81.566406 212.296875 81.242188 C 212.296875 80.917969 212.332031 80.597656 212.394531 80.277344 C 212.457031 79.960938 212.550781 79.648438 212.675781 79.351562 C 212.800781 79.050781 212.953125 78.765625 213.132812 78.496094 C 213.3125 78.226562 213.515625 77.976562 213.746094 77.746094 C 213.976562 77.515625 214.226562 77.3125 214.496094 77.132812 C 214.765625 76.953125 215.050781 76.800781 215.351562 76.675781 C 215.648438 76.550781 215.960938 76.457031 216.277344 76.394531 C 216.597656 76.332031 216.917969 76.296875 217.242188 76.296875 C 217.566406 76.296875 217.886719 76.332031 218.207031 76.394531 C 218.523438 76.457031 218.832031 76.550781 219.132812 76.675781 C 219.433594 76.800781 219.71875 76.953125 219.988281 77.132812 C 220.257812 77.3125 220.507812 77.515625 220.738281 77.746094 C 220.96875 77.976562 221.171875 78.226562 221.351562 78.496094 C 221.53125 78.765625 221.683594 79.050781 221.808594 79.351562 C 221.933594 79.648438 222.027344 79.960938 222.089844 80.277344 C 222.152344 80.597656 222.183594 80.917969 222.183594 81.242188 Z M 222.183594 81.242188 " fill-opacity="1" fill-rule="nonzero"/><path fill="#fff743" d="M 281.070312 114.628906 C 281.070312 114.828125 281.03125 115.023438 280.953125 115.207031 C 280.878906 115.394531 280.769531 115.554688 280.628906 115.699219 C 280.484375 115.839844 280.324219 115.949219 280.136719 116.023438 C 279.953125 116.101562 279.761719 116.140625 279.558594 116.140625 C 279.359375 116.140625 279.167969 116.101562 278.980469 116.023438 C 278.796875 115.949219 278.632812 115.839844 278.492188 115.699219 C 278.351562 115.554688 278.242188 115.394531 278.164062 115.207031 C 278.085938 115.023438 278.050781 114.828125 278.050781 114.628906 C 278.050781 114.429688 278.085938 114.238281 278.164062 114.050781 C 278.242188 113.867188 278.351562 113.703125 278.492188 113.5625 C 278.632812 113.421875 278.796875 113.3125 278.980469 113.234375 C 279.167969 113.15625 279.359375 113.121094 279.558594 113.121094 C 279.761719 113.121094 279.953125 113.15625 280.136719 113.234375 C 280.324219 113.3125 280.484375 113.421875 280.628906 113.5625 C 280.769531 113.703125 280.878906 113.867188 280.953125 114.050781 C 281.03125 114.238281 281.070312 114.429688 281.070312 114.628906 Z M 281.070312 114.628906 " fill-opacity="1" fill-rule="nonzero"/><path fill="#fff743" d="M 273.449219 138.332031 C 273.449219 138.476562 273.421875 138.617188 273.367188 138.753906 C 273.308594 138.886719 273.230469 139.007812 273.125 139.109375 C 273.023438 139.214844 272.902344 139.292969 272.769531 139.347656 C 272.632812 139.40625 272.492188 139.433594 272.347656 139.433594 C 272.199219 139.433594 272.058594 139.40625 271.925781 139.347656 C 271.789062 139.292969 271.671875 139.214844 271.566406 139.109375 C 271.464844 139.007812 271.382812 138.886719 271.328125 138.753906 C 271.273438 138.617188 271.242188 138.476562 271.242188 138.332031 C 271.242188 138.183594 271.273438 138.042969 271.328125 137.90625 C 271.382812 137.773438 271.464844 137.652344 271.566406 137.550781 C 271.671875 137.445312 271.789062 137.367188 271.925781 137.3125 C 272.058594 137.253906 272.199219 137.226562 272.347656 137.226562 C 272.492188 137.226562 272.632812 137.253906 272.769531 137.3125 C 272.902344 137.367188 273.023438 137.445312 273.125 137.550781 C 273.230469 137.652344 273.308594 137.773438 273.367188 137.90625 C 273.421875 138.042969 273.449219 138.183594 273.449219 138.332031 Z M 273.449219 138.332031 " fill-opacity="1" fill-rule="nonzero"/><path fill="#fff743" d="M 250.332031 94.117188 C 250.332031 94.382812 250.28125 94.636719 250.179688 94.882812 C 250.078125 95.128906 249.933594 95.347656 249.746094 95.535156 C 249.558594 95.722656 249.339844 95.867188 249.09375 95.96875 C 248.851562 96.070312 248.59375 96.121094 248.328125 96.121094 C 248.0625 96.121094 247.808594 96.070312 247.5625 95.96875 C 247.316406 95.867188 247.097656 95.722656 246.910156 95.535156 C 246.722656 95.347656 246.578125 95.128906 246.476562 94.882812 C 246.375 94.636719 246.324219 94.382812 246.324219 94.117188 C 246.324219 93.851562 246.375 93.597656 246.476562 93.351562 C 246.578125 93.105469 246.722656 92.886719 246.910156 92.699219 C 247.097656 92.511719 247.316406 92.367188 247.5625 92.265625 C 247.808594 92.164062 248.0625 92.113281 248.328125 92.113281 C 248.59375 92.113281 248.851562 92.164062 249.09375 92.265625 C 249.339844 92.367188 249.558594 92.511719 249.746094 92.699219 C 249.933594 92.886719 250.078125 93.105469 250.179688 93.351562 C 250.28125 93.597656 250.332031 93.851562 250.332031 94.117188 Z M 250.332031 94.117188 " fill-opacity="1" fill-rule="nonzero"/><path fill="#fff743" d="M 276.710938 160.765625 C 276.710938 161.144531 276.636719 161.507812 276.492188 161.859375 C 276.347656 162.207031 276.140625 162.515625 275.875 162.78125 C 275.605469 163.050781 275.296875 163.257812 274.949219 163.402344 C 274.597656 163.546875 274.234375 163.617188 273.855469 163.617188 C 273.476562 163.617188 273.113281 163.546875 272.765625 163.402344 C 272.414062 163.257812 272.105469 163.050781 271.839844 162.78125 C 271.570312 162.515625 271.367188 162.207031 271.222656 161.859375 C 271.078125 161.507812 271.003906 161.144531 271.003906 160.765625 C 271.003906 160.386719 271.078125 160.023438 271.222656 159.675781 C 271.367188 159.324219 271.570312 159.015625 271.839844 158.75 C 272.105469 158.480469 272.414062 158.273438 272.765625 158.128906 C 273.113281 157.984375 273.476562 157.914062 273.855469 157.914062 C 274.234375 157.914062 274.597656 157.984375 274.949219 158.128906 C 275.296875 158.273438 275.605469 158.480469 275.875 158.75 C 276.140625 159.015625 276.347656 159.324219 276.492188 159.675781 C 276.636719 160.023438 276.710938 160.386719 276.710938 160.765625 Z M 276.710938 160.765625 " fill-opacity="1" fill-rule="nonzero"/><path fill="#fff743" d="M 259.066406 223.425781 C 259.066406 223.753906 259.003906 224.070312 258.878906 224.371094 C 258.753906 224.675781 258.574219 224.941406 258.34375 225.175781 C 258.113281 225.40625 257.84375 225.585938 257.542969 225.710938 C 257.238281 225.835938 256.921875 225.898438 256.59375 225.898438 C 256.269531 225.898438 255.953125 225.835938 255.648438 225.710938 C 255.347656 225.585938 255.078125 225.40625 254.847656 225.175781 C 254.617188 224.941406 254.4375 224.675781 254.3125 224.371094 C 254.1875 224.070312 254.125 223.753906 254.125 223.425781 C 254.125 223.097656 254.1875 222.785156 254.3125 222.480469 C 254.4375 222.179688 254.617188 221.910156 254.847656 221.679688 C 255.078125 221.449219 255.347656 221.269531 255.648438 221.144531 C 255.953125 221.019531 256.269531 220.957031 256.59375 220.957031 C 256.921875 220.957031 257.238281 221.019531 257.542969 221.144531 C 257.84375 221.269531 258.113281 221.449219 258.34375 221.679688 C 258.574219 221.910156 258.753906 222.179688 258.878906 222.480469 C 259.003906 222.785156 259.066406 223.097656 259.066406 223.425781 Z M 259.066406 223.425781 " fill-opacity="1" fill-rule="nonzero"/><path fill="#fff743" d="M 222.535156 178.917969 C 222.535156 179.128906 222.496094 179.332031 222.414062 179.527344 C 222.332031 179.722656 222.21875 179.894531 222.070312 180.042969 C 221.917969 180.195312 221.746094 180.308594 221.550781 180.390625 C 221.359375 180.46875 221.15625 180.511719 220.945312 180.511719 C 220.734375 180.511719 220.53125 180.46875 220.335938 180.390625 C 220.140625 180.308594 219.96875 180.195312 219.820312 180.042969 C 219.667969 179.894531 219.554688 179.722656 219.472656 179.527344 C 219.394531 179.332031 219.351562 179.128906 219.351562 178.917969 C 219.351562 178.707031 219.394531 178.503906 219.472656 178.308594 C 219.554688 178.117188 219.667969 177.945312 219.820312 177.792969 C 219.96875 177.644531 220.140625 177.53125 220.335938 177.449219 C 220.53125 177.367188 220.734375 177.328125 220.945312 177.328125 C 221.15625 177.328125 221.359375 177.367188 221.550781 177.449219 C 221.746094 177.53125 221.917969 177.644531 222.070312 177.792969 C 222.21875 177.945312 222.332031 178.117188 222.414062 178.308594 C 222.496094 178.503906 222.535156 178.707031 222.535156 178.917969 Z M 222.535156 178.917969 " fill-opacity="1" fill-rule="nonzero"/><path fill="#fff743" d="M 227.984375 204.285156 C 227.984375 204.425781 227.960938 204.5625 227.90625 204.691406 C 227.851562 204.820312 227.773438 204.9375 227.675781 205.035156 C 227.578125 205.132812 227.460938 205.210938 227.332031 205.265625 C 227.203125 205.320312 227.066406 205.34375 226.925781 205.34375 C 226.785156 205.34375 226.652344 205.320312 226.519531 205.265625 C 226.390625 205.210938 226.277344 205.132812 226.175781 205.035156 C 226.078125 204.9375 226 204.820312 225.949219 204.691406 C 225.894531 204.5625 225.867188 204.425781 225.867188 204.285156 C 225.867188 204.144531 225.894531 204.011719 225.949219 203.878906 C 226 203.75 226.078125 203.636719 226.175781 203.535156 C 226.277344 203.4375 226.390625 203.359375 226.519531 203.308594 C 226.652344 203.253906 226.785156 203.226562 226.925781 203.226562 C 227.066406 203.226562 227.203125 203.253906 227.332031 203.308594 C 227.460938 203.359375 227.578125 203.4375 227.675781 203.535156 C 227.773438 203.636719 227.851562 203.75 227.90625 203.878906 C 227.960938 204.011719 227.984375 204.144531 227.984375 204.285156 Z M 227.984375 204.285156 " fill-opacity="1" fill-rule="nonzero"/><path fill="#fff743" d="M 188.164062 205.035156 C 188.164062 205.277344 188.117188 205.507812 188.023438 205.730469 C 187.933594 205.953125 187.800781 206.148438 187.632812 206.316406 C 187.460938 206.488281 187.265625 206.617188 187.042969 206.710938 C 186.824219 206.800781 186.59375 206.847656 186.351562 206.847656 C 186.113281 206.847656 185.878906 206.800781 185.660156 206.710938 C 185.4375 206.617188 185.242188 206.488281 185.070312 206.316406 C 184.902344 206.148438 184.769531 205.953125 184.679688 205.730469 C 184.585938 205.507812 184.542969 205.277344 184.542969 205.035156 C 184.542969 204.796875 184.585938 204.566406 184.679688 204.34375 C 184.769531 204.121094 184.902344 203.925781 185.070312 203.757812 C 185.242188 203.585938 185.4375 203.457031 185.660156 203.363281 C 185.878906 203.273438 186.113281 203.226562 186.351562 203.226562 C 186.59375 203.226562 186.824219 203.273438 187.042969 203.363281 C 187.265625 203.457031 187.460938 203.585938 187.632812 203.757812 C 187.800781 203.925781 187.933594 204.121094 188.023438 204.34375 C 188.117188 204.566406 188.164062 204.796875 188.164062 205.035156 Z M 188.164062 205.035156 " fill-opacity="1" fill-rule="nonzero"/><path fill="#fff743" d="M 217.386719 123.726562 C 217.386719 124.0625 217.320312 124.386719 217.191406 124.699219 C 217.0625 125.011719 216.878906 125.285156 216.640625 125.523438 C 216.402344 125.761719 216.128906 125.945312 215.816406 126.074219 C 215.503906 126.203125 215.179688 126.269531 214.84375 126.269531 C 214.503906 126.269531 214.179688 126.203125 213.867188 126.074219 C 213.558594 125.945312 213.28125 125.761719 213.042969 125.523438 C 212.804688 125.285156 212.621094 125.011719 212.492188 124.699219 C 212.363281 124.386719 212.296875 124.0625 212.296875 123.726562 C 212.296875 123.386719 212.363281 123.0625 212.492188 122.75 C 212.621094 122.441406 212.804688 122.164062 213.042969 121.925781 C 213.28125 121.6875 213.558594 121.503906 213.867188 121.375 C 214.179688 121.246094 214.503906 121.179688 214.84375 121.179688 C 215.179688 121.179688 215.503906 121.246094 215.816406 121.375 C 216.128906 121.503906 216.402344 121.6875 216.640625 121.925781 C 216.878906 122.164062 217.0625 122.441406 217.191406 122.75 C 217.320312 123.0625 217.386719 123.386719 217.386719 123.726562 Z M 217.386719 123.726562 " fill-opacity="1" fill-rule="nonzero"/><path fill="#fff743" d="M 276.953125 88.242188 C 276.953125 88.707031 276.863281 89.15625 276.683594 89.585938 C 276.507812 90.011719 276.253906 90.390625 275.925781 90.71875 C 275.597656 91.050781 275.21875 91.300781 274.789062 91.480469 C 274.359375 91.65625 273.914062 91.746094 273.449219 91.746094 C 272.984375 91.746094 272.539062 91.65625 272.109375 91.480469 C 271.679688 91.300781 271.300781 91.050781 270.972656 90.71875 C 270.644531 90.390625 270.390625 90.011719 270.214844 89.585938 C 270.035156 89.15625 269.945312 88.707031 269.945312 88.242188 C 269.945312 87.78125 270.035156 87.332031 270.214844 86.902344 C 270.390625 86.472656 270.644531 86.097656 270.972656 85.765625 C 271.300781 85.4375 271.679688 85.1875 272.109375 85.007812 C 272.539062 84.832031 272.984375 84.742188 273.449219 84.742188 C 273.914062 84.742188 274.359375 84.832031 274.789062 85.007812 C 275.21875 85.1875 275.597656 85.4375 275.925781 85.765625 C 276.253906 86.097656 276.507812 86.472656 276.683594 86.902344 C 276.863281 87.332031 276.953125 87.78125 276.953125 88.242188 Z M 276.953125 88.242188 " fill-opacity="1" fill-rule="nonzero"/><g mask="url(#06fa5a4934)"><g transform="matrix(1, 0, 0, 1, 92, 143)"><g clip-path="url(#9dd60e6a4d)"><g clip-path="url(#44ff283f1f)"><path fill="#fff743" d="M 51.546875 157.148438 C 53.015625 155.179688 75.402344 124.644531 54.613281 122.148438 C 54.105469 122.085938 53.570312 122.042969 53.015625 122.019531 C 28.75 120.863281 19.050781 120.914062 22.839844 107.152344 C 25.210938 98.550781 22.203125 94.71875 19.613281 93.058594 C 18.355469 92.25 18.257812 90.4375 19.382812 89.449219 L 23.683594 85.664062 L 18.058594 84.21875 C 15.789062 83.636719 14.5625 81.164062 15.496094 79.015625 C 16.636719 76.378906 17.3125 73.195312 14.695312 72.042969 C 12.109375 70.898438 7.503906 69.386719 3.828125 68.242188 C 1.226562 67.429688 0.285156 64.238281 2.027344 62.148438 C 8.054688 54.929688 19.394531 40.621094 21.433594 32.855469 C 23.472656 25.117188 18.941406 11.332031 16.722656 0.746094 C 16.71875 0.742188 16.71875 0.734375 16.71875 0.734375 C 16.71875 0.730469 16.71875 0.730469 16.71875 0.730469 C 16.71875 0.730469 16.722656 0.730469 16.726562 0.734375 L 50.769531 9.53125 L 63.035156 12.699219 C 65.929688 13.441406 68.480469 15.160156 70.265625 17.554688 L 70.5 17.863281 L 85.277344 37.082031 C 86.507812 38.683594 86.769531 40.828125 85.953125 42.679688 L 80.628906 54.769531 C 80.628906 54.769531 32.65625 101.9375 67.507812 120.285156 C 102.355469 138.636719 115.539062 120.832031 149.851562 126.0625 C 118.898438 126.355469 86.464844 134.773438 51.472656 157.25 C 51.476562 157.25 51.476562 157.242188 51.480469 157.238281 Z M 51.546875 157.148438 " fill-opacity="1" fill-rule="nonzero"/></g></g></g></g><g mask="url(#de2fd43e92)"><g transform="matrix(1, 0, 0, 1, 92, 143)"><g clip-path="url(#2436a8e094)"><g clip-path="url(#d0acd9be33)"><path fill="#000000" d="M 64.75 70.785156 C 49.984375 99.078125 51.285156 114.4375 54.613281 122.148438 C 54.105469 122.085938 53.570312 122.042969 53.015625 122.019531 C 28.75 120.863281 19.050781 120.914062 22.839844 107.152344 C 25.210938 98.550781 22.203125 94.71875 19.613281 93.058594 C 18.355469 92.25 18.257812 90.4375 19.382812 89.449219 L 23.683594 85.664062 L 18.058594 84.21875 C 15.789062 83.636719 14.5625 81.164062 15.496094 79.015625 C 16.636719 76.378906 17.3125 73.195312 14.695312 72.042969 C 12.109375 70.898438 7.503906 69.386719 3.828125 68.242188 C 1.226562 67.429688 0.285156 64.238281 2.027344 62.148438 C 8.054688 54.929688 19.394531 40.621094 21.433594 32.855469 C 23.472656 25.117188 18.941406 11.332031 16.722656 0.746094 C 16.71875 0.742188 16.71875 0.734375 16.71875 0.734375 C 16.71875 0.730469 16.71875 0.730469 16.71875 0.730469 C 16.71875 0.730469 16.722656 0.730469 16.726562 0.734375 L 50.769531 9.53125 L 63.035156 12.699219 C 65.929688 13.441406 68.480469 15.160156 70.265625 17.554688 L 70.5 17.863281 C 75.691406 27.011719 78.925781 43.621094 64.75 70.785156 Z M 64.75 70.785156 " fill-opacity="1" fill-rule="nonzero"/></g></g></g></g><g mask="url(#9d3afa8a08)"><g transform="matrix(1, 0, 0, 1, 92, 143)"><g clip-path="url(#f1195584f8)"><g clip-path="url(#39fc297748)"><path fill="#fff743" d="M 51.546875 157.148438 C 53.050781 155.132812 76.507812 123.140625 53.015625 122.019531 C 28.75 120.863281 19.050781 120.914062 22.839844 107.152344 C 25.210938 98.550781 22.203125 94.71875 19.613281 93.058594 C 18.355469 92.25 18.257812 90.4375 19.382812 89.449219 L 23.683594 85.664062 L 18.058594 84.21875 C 15.789062 83.636719 14.5625 81.164062 15.496094 79.015625 C 16.636719 76.378906 17.3125 73.195312 14.695312 72.042969 C 12.109375 70.898438 7.503906 69.386719 3.828125 68.242188 C 1.226562 67.429688 0.285156 64.238281 2.027344 62.148438 C 8.054688 54.929688 19.394531 40.621094 21.433594 32.855469 C 23.472656 25.117188 18.941406 11.332031 16.722656 0.746094 C 16.71875 0.742188 16.71875 0.734375 16.71875 0.734375 C 16.71875 0.730469 16.71875 0.730469 16.71875 0.730469 C 16.71875 0.730469 16.722656 0.730469 16.726562 0.734375 L 50.769531 9.53125 L 55.199219 16.316406 C 63.3125 28.738281 64.289062 44.515625 57.765625 57.839844 L 50.351562 73 C 41.695312 90.699219 50.285156 111.992188 68.796875 118.730469 C 76.777344 121.636719 78.851562 131.960938 72.609375 137.722656 Z M 51.546875 157.148438 " fill-opacity="1" fill-rule="nonzero"/></g></g></g></g><g mask="url(#9891d1778c)"><g transform="matrix(1, 0, 0, 1, 119, 123)"><g clip-path="url(#ba00450a27)"><g clip-path="url(#48ebe5f698)"><path fill="#000000" d="M 62.210938 62.722656 C 63.53125 60.867188 63.582031 58.394531 62.332031 56.488281 L 46.394531 32.144531 C 45.257812 30.410156 43.730469 28.972656 41.9375 27.945312 L 0.617188 4.328125 C 4.667969 2.597656 8.640625 1.300781 12.511719 0.394531 L 48 26.160156 C 49.039062 26.914062 49.886719 27.902344 50.480469 29.042969 L 64.0625 55.261719 C 65.652344 58.324219 65.164062 62.050781 62.847656 64.609375 L 53.628906 74.765625 Z M 62.210938 62.722656 " fill-opacity="1" fill-rule="nonzero"/></g></g></g></g><path fill="#fff743" d="M 181.210938 185.722656 C 182.53125 183.867188 182.582031 181.394531 181.332031 179.488281 L 165.394531 155.144531 C 164.257812 153.410156 162.730469 151.972656 160.9375 150.945312 L 119.617188 127.328125 C 123.667969 125.597656 127.640625 124.300781 131.511719 123.394531 L 167 149.160156 C 168.039062 149.914062 168.886719 150.902344 169.480469 152.042969 L 183.0625 178.261719 C 184.652344 181.324219 184.164062 185.050781 181.847656 187.609375 L 172.628906 197.765625 Z M 181.210938 185.722656 " fill-opacity="1" fill-rule="nonzero"/><g mask="url(#e52b3fef13)"><g transform="matrix(1, 0, 0, 1, 92, 143)"><g clip-path="url(#857ab86427)"><g clip-path="url(#fe2e0c7878)"><path fill="#fff743" d="M 69.90625 131.601562 C 69.90625 134.308594 68.980469 137.054688 67.007812 139.328125 L 51.546875 157.148438 C 52.839844 155.417969 70.292969 131.617188 60.375 124.1875 C 59.78125 123.738281 59.085938 123.351562 58.277344 123.03125 C 56.871094 122.472656 55.132812 122.121094 53.015625 122.019531 C 28.75 120.863281 19.050781 120.914062 22.839844 107.152344 C 25.210938 98.550781 22.203125 94.71875 19.613281 93.058594 C 18.355469 92.25 18.257812 90.4375 19.382812 89.449219 L 23.683594 85.664062 L 18.058594 84.21875 C 15.789062 83.636719 14.5625 81.164062 15.496094 79.015625 C 16.636719 76.378906 17.3125 73.195312 14.695312 72.042969 C 12.109375 70.898438 7.503906 69.386719 3.828125 68.242188 C 1.226562 67.429688 0.285156 64.238281 2.027344 62.148438 C 6.652344 56.609375 14.402344 46.898438 18.683594 39.167969 C 19.980469 36.824219 20.960938 34.664062 21.433594 32.855469 C 23.472656 25.117188 18.941406 11.332031 16.722656 0.746094 C 16.71875 0.742188 16.71875 0.734375 16.71875 0.734375 C 16.722656 0.734375 16.726562 0.734375 16.726562 0.734375 L 32.921875 20.890625 C 42.734375 33.101562 46.011719 49.3125 41.714844 64.378906 L 38.667969 75.035156 C 33.199219 94.203125 43.75 114.289062 62.636719 120.660156 C 67.296875 122.605469 69.90625 127.054688 69.90625 131.601562 Z M 69.90625 131.601562 " fill-opacity="1" fill-rule="nonzero"/></g></g></g></g><path fill="#fff743" d="M 150.277344 266.03125 C 148.871094 265.472656 147.132812 265.121094 145.015625 265.019531 C 120.75 263.863281 111.050781 263.914062 114.839844 250.152344 C 117.210938 241.550781 114.203125 237.71875 111.613281 236.058594 C 110.355469 235.25 110.257812 233.4375 111.382812 232.449219 L 115.683594 228.664062 L 110.058594 227.21875 C 107.789062 226.636719 106.5625 224.164062 107.496094 222.015625 C 108.636719 219.378906 109.3125 216.195312 106.695312 215.042969 C 104.109375 213.898438 99.503906 212.386719 95.828125 211.242188 C 93.226562 210.429688 92.285156 207.238281 94.027344 205.148438 C 98.652344 199.609375 106.402344 189.898438 110.683594 182.167969 C 117.351562 190.988281 121.136719 201.757812 121.355469 212.972656 L 121.585938 224.664062 C 121.898438 240.65625 130.726562 255.265625 144.734375 262.980469 Z M 150.277344 266.03125 " fill-opacity="1" fill-rule="nonzero"/><g mask="url(#59f693a060)"><g transform="matrix(1, 0, 0, 1, 164, 89)"><g clip-path="url(#469338b173)"><g clip-path="url(#3498ab6e8a)"><path fill="#fff743" d="M 98.480469 82.347656 L 95.808594 55.96875 C 98.019531 55.40625 99.652344 53.40625 99.652344 51.023438 C 99.652344 48.28125 97.5 46.054688 94.789062 45.921875 L 93.308594 31.273438 C 94.609375 30.675781 95.488281 29.3125 95.351562 27.753906 C 95.210938 26.089844 93.871094 24.722656 92.210938 24.550781 C 91.332031 24.460938 90.507812 24.695312 89.847656 25.144531 C 86.234375 22.710938 79.3125 18.339844 70.253906 13.988281 C 69.554688 13.652344 68.832031 13.316406 68.089844 12.972656 C 68.335938 12.066406 68.367188 11.074219 68.003906 10.023438 C 67.324219 8.058594 65.53125 6.636719 63.457031 6.515625 C 61.460938 6.40625 59.695312 7.445312 58.761719 9.03125 C 47.257812 4.613281 32.925781 0.738281 17.804688 0.585938 C 12.804688 0.542969 7.757812 1.03125 2.683594 2.042969 C 2.53125 2.574219 2.386719 3.113281 2.246094 3.65625 C 7.171875 2.636719 12.371094 2.058594 17.785156 2.117188 C 32.417969 2.261719 46.394531 5.925781 58.183594 10.472656 C 58.125 10.722656 58.085938 10.984375 58.066406 11.25 L 31.976562 13.257812 C 31.558594 12.007812 30.378906 11.105469 28.988281 11.105469 C 27.839844 11.105469 26.839844 11.722656 26.289062 12.640625 L 1.863281 5.222656 C 1.746094 5.71875 1.636719 6.21875 1.539062 6.71875 L 25.84375 14.101562 C 25.839844 14.152344 25.835938 14.203125 25.835938 14.257812 C 25.835938 15.671875 26.769531 16.867188 28.054688 17.265625 L 27.378906 29.335938 C 26.183594 29.433594 25.105469 29.945312 24.289062 30.726562 L 1.277344 8.09375 C 1.167969 8.710938 1.066406 9.328125 0.984375 9.953125 L 23.34375 31.941406 C 22.933594 32.679688 22.699219 33.523438 22.699219 34.425781 C 22.699219 35.816406 23.257812 37.074219 24.160156 38 L 17.996094 45.765625 C 18.429688 46.03125 18.875 46.289062 19.332031 46.546875 L 25.378906 38.921875 C 26.101562 39.316406 26.929688 39.539062 27.816406 39.539062 C 28.746094 39.539062 29.617188 39.285156 30.367188 38.847656 L 47.410156 55.609375 C 47.136719 55.921875 46.875 56.246094 46.636719 56.582031 C 55.292969 60.457031 62.117188 66.367188 67.460938 73.585938 C 67.984375 73.023438 68.453125 72.414062 68.867188 71.761719 L 93.453125 85.632812 C 93.246094 86.175781 93.128906 86.757812 93.121094 87.371094 L 76.351562 89.652344 C 76.550781 90.136719 76.746094 90.625 76.9375 91.113281 L 93.324219 88.886719 C 93.625 89.917969 94.246094 90.8125 95.066406 91.460938 C 93.046875 95.039062 90.011719 100.476562 86.71875 106.570312 C 86.484375 106.515625 86.242188 106.484375 85.992188 106.484375 C 85.410156 106.484375 84.867188 106.644531 84.402344 106.917969 L 80.808594 103.242188 C 81.058594 104.210938 81.296875 105.183594 81.523438 106.160156 C 82.089844 108.589844 82.585938 111.050781 83.019531 113.519531 C 83.167969 114.347656 83.304688 115.179688 83.4375 116.011719 C 84.019531 114.898438 84.605469 113.785156 85.1875 112.679688 C 85.808594 112.847656 86.5 112.847656 87.234375 112.515625 C 88.300781 112.039062 89.058594 111.015625 89.136719 109.851562 C 89.207031 108.824219 88.777344 107.898438 88.078125 107.277344 C 91.355469 101.203125 94.382812 95.785156 96.394531 92.21875 C 97.128906 92.5 97.941406 92.625 98.792969 92.53125 C 101.285156 92.25 103.246094 90.140625 103.339844 87.636719 C 103.441406 84.8125 101.25 82.484375 98.480469 82.347656 Z M 91.804688 31.597656 L 93.269531 46.074219 C 92.441406 46.285156 91.691406 46.703125 91.078125 47.265625 L 75.386719 34.667969 C 75.570312 34.265625 75.675781 33.820312 75.675781 33.351562 C 75.675781 33.265625 75.671875 33.179688 75.667969 33.097656 L 88.601562 29.496094 C 89.148438 30.726562 90.375 31.585938 91.804688 31.597656 Z M 67.453125 14.398438 C 77.347656 18.972656 84.894531 23.679688 88.785156 26.28125 C 88.488281 26.785156 88.316406 27.367188 88.300781 27.992188 L 75.171875 31.644531 C 74.613281 30.773438 73.636719 30.199219 72.523438 30.199219 C 72.324219 30.199219 72.125 30.222656 71.933594 30.257812 L 65.847656 15.972656 C 66.488281 15.574219 67.039062 15.035156 67.453125 14.398438 Z M 28.902344 29.429688 L 29.578125 17.351562 C 30.867188 17.105469 31.871094 16.082031 32.089844 14.785156 L 58.183594 12.773438 C 58.265625 13.125 58.382812 13.464844 58.53125 13.785156 L 31.96875 31.453125 C 31.246094 30.441406 30.164062 29.703125 28.902344 29.429688 Z M 57.53125 51.023438 C 54.046875 51.023438 50.871094 52.34375 48.480469 54.515625 L 31.570312 37.886719 C 32.410156 36.976562 32.925781 35.761719 32.925781 34.425781 C 32.925781 33.863281 32.832031 33.328125 32.667969 32.824219 L 59.378906 15.054688 C 60.035156 15.777344 60.894531 16.308594 61.867188 16.5625 L 58.195312 51.039062 C 57.972656 51.027344 57.753906 51.023438 57.53125 51.023438 Z M 59.714844 51.203125 L 63.386719 16.726562 C 63.75 16.710938 64.101562 16.65625 64.441406 16.570312 L 70.542969 30.902344 C 69.832031 31.480469 69.375 32.359375 69.375 33.351562 C 69.375 34.253906 69.757812 35.070312 70.367188 35.644531 L 62.601562 52.011719 C 61.6875 51.640625 60.71875 51.367188 59.714844 51.203125 Z M 63.984375 52.667969 L 71.703125 36.390625 C 71.96875 36.460938 72.242188 36.503906 72.523438 36.503906 C 73.242188 36.503906 73.898438 36.261719 74.429688 35.859375 L 90.121094 48.457031 C 89.683594 49.210938 89.425781 50.085938 89.425781 51.023438 C 89.425781 51.367188 89.460938 51.707031 89.527344 52.03125 L 69.910156 59.171875 C 68.714844 56.398438 66.621094 54.105469 63.984375 52.667969 Z M 94.207031 84.300781 L 69.621094 70.433594 C 70.503906 68.640625 71.003906 66.625 71.003906 64.492188 C 71.003906 63.144531 70.800781 61.839844 70.429688 60.613281 L 90.046875 53.472656 C 90.878906 54.988281 92.457031 56.03125 94.289062 56.121094 L 96.957031 82.5 C 95.851562 82.785156 94.890625 83.425781 94.207031 84.300781 Z M 94.207031 84.300781 " fill-opacity="1" fill-rule="nonzero"/></g></g></g></g></svg>