<svg xmlns="http://www.w3.org/2000/svg" xmlns:xlink="http://www.w3.org/1999/xlink" width="500" zoomAndPan="magnify" viewBox="0 0 375 374.999991" height="500" preserveAspectRatio="xMidYMid meet" version="1.0"><defs><filter x="0%" y="0%" width="100%" height="100%" id="3a1c335fa8"><feColorMatrix values="0 0 0 0 1 0 0 0 0 1 0 0 0 0 1 0 0 0 1 0" color-interpolation-filters="sRGB"/></filter><mask id="c809cf620e"><g filter="url(#3a1c335fa8)"><rect x="-37.5" width="450" fill="#000000" y="-37.499999" height="449.999989" fill-opacity="0.28"/></g></mask><clipPath id="6936b18819"><path d="M 1 1 L 236.839844 1 L 236.839844 249 L 1 249 Z M 1 1 " clip-rule="nonzero"/></clipPath><clipPath id="1a03778842"><rect x="0" width="237" y="0" height="249"/></clipPath><mask id="7499745230"><g filter="url(#3a1c335fa8)"><rect x="-37.5" width="450" fill="#000000" y="-37.499999" height="449.999989" fill-opacity="0.1"/></g></mask><clipPath id="2ab731b8fe"><path d="M 1 1 L 118 1 L 118 193.800781 L 1 193.800781 Z M 1 1 " clip-rule="nonzero"/></clipPath><clipPath id="0099e260ae"><rect x="0" width="119" y="0" height="194"/></clipPath><mask id="20ca8dc9ab"><g filter="url(#3a1c335fa8)"><rect x="-37.5" width="450" fill="#000000" y="-37.499999" height="449.999989" fill-opacity="0.5"/></g></mask><clipPath id="6ba861bf14"><path d="M 1 1 L 120.199219 1 L 120.199219 249 L 1 249 Z M 1 1 " clip-rule="nonzero"/></clipPath><clipPath id="949e89a42d"><rect x="0" width="121" y="0" height="249"/></clipPath><mask id="647be10b61"><g filter="url(#3a1c335fa8)"><rect x="-37.5" width="450" fill="#000000" y="-37.499999" height="449.999989" fill-opacity="0.21"/></g></mask><clipPath id="e6a3489576"><rect x="0" width="104" y="0" height="119"/></clipPath><mask id="6aea1d670d"><g filter="url(#3a1c335fa8)"><rect x="-37.5" width="450" fill="#000000" y="-37.499999" height="449.999989" fill-opacity="0.51"/></g></mask><clipPath id="12847498d2"><path d="M 1 1 L 110.359375 1 L 110.359375 249 L 1 249 Z M 1 1 " clip-rule="nonzero"/></clipPath><clipPath id="02bc1a64e8"><rect x="0" width="111" y="0" height="249"/></clipPath><mask id="cfbea39dd4"><g filter="url(#3a1c335fa8)"><rect x="-37.5" width="450" fill="#000000" y="-37.499999" height="449.999989" fill-opacity="0.42"/></g></mask><clipPath id="8d3ee6a4ce"><path d="M 0.679688 0.398438 L 162.921875 0.398438 L 162.921875 183.28125 L 0.679688 183.28125 Z M 0.679688 0.398438 " clip-rule="nonzero"/></clipPath><clipPath id="50e380a34f"><rect x="0" width="163" y="0" height="184"/></clipPath></defs><path fill="#d11d4d" d="M 306.128906 161.949219 L 301.902344 120.214844 C 305.398438 119.324219 307.984375 116.164062 307.984375 112.390625 C 307.984375 108.054688 304.574219 104.527344 300.289062 104.316406 L 297.949219 81.148438 C 300.007812 80.203125 301.398438 78.042969 301.183594 75.578125 C 300.957031 72.941406 298.839844 70.78125 296.210938 70.511719 C 294.816406 70.367188 293.515625 70.738281 292.46875 71.449219 C 286.753906 67.597656 275.804688 60.6875 261.46875 53.796875 C 260.363281 53.265625 259.222656 52.734375 258.046875 52.1875 C 258.441406 50.757812 258.488281 49.1875 257.910156 47.523438 C 256.835938 44.417969 254 42.167969 250.722656 41.980469 C 247.558594 41.800781 244.769531 43.445312 243.289062 45.953125 C 225.09375 38.96875 202.417969 32.832031 178.492188 32.597656 C 170.585938 32.527344 162.597656 33.300781 154.574219 34.898438 C 153.738281 35.0625 152.902344 35.242188 152.058594 35.425781 C 150.835938 32.515625 147.957031 30.472656 144.605469 30.472656 C 140.136719 30.472656 136.515625 34.09375 136.515625 38.5625 C 136.515625 38.996094 136.558594 39.421875 136.625 39.835938 C 132.316406 41.347656 128.003906 43.089844 123.695312 45.078125 C 108.59375 52.039062 96.492188 60.527344 87.890625 67.589844 C 86.28125 66.410156 84.226562 65.800781 82.019531 66.09375 C 78.375 66.578125 75.46875 69.558594 75.078125 73.210938 C 74.550781 78.082031 78.351562 82.203125 83.117188 82.203125 C 85.492188 82.203125 87.617188 81.171875 89.097656 79.542969 L 98.925781 86.082031 C 92.800781 87.515625 86.515625 89.570312 80.105469 92.308594 L 145.476562 129.671875 C 148.320312 131.296875 150.734375 133.574219 152.53125 136.3125 L 177.746094 174.828125 C 179.722656 177.84375 179.644531 181.757812 177.554688 184.691406 L 163.980469 203.75 L 172.402344 184.621094 C 173.691406 181.695312 173.28125 178.300781 171.332031 175.769531 L 147.953125 145.363281 L 147.578125 144.875 C 144.753906 141.082031 140.722656 138.371094 136.144531 137.191406 L 116.738281 132.179688 L 62.875 118.261719 C 62.871094 118.253906 62.867188 118.253906 62.867188 118.253906 C 62.867188 118.253906 62.867188 118.253906 62.867188 118.261719 C 62.867188 118.265625 62.867188 118.273438 62.871094 118.28125 C 66.382812 135.03125 73.550781 156.839844 70.324219 169.082031 C 67.09375 181.367188 49.160156 204.007812 39.621094 215.425781 C 36.867188 218.734375 38.351562 223.78125 42.46875 225.066406 C 48.289062 226.878906 55.574219 229.269531 59.664062 231.078125 C 63.804688 232.90625 62.738281 237.9375 60.929688 242.109375 C 59.453125 245.507812 61.394531 249.421875 64.984375 250.34375 L 73.882812 252.628906 L 67.078125 258.613281 C 65.300781 260.183594 65.457031 263.050781 67.449219 264.324219 C 71.539062 266.957031 76.300781 273.019531 72.550781 286.628906 C 66.550781 308.398438 81.902344 308.316406 120.289062 310.144531 C 121.171875 310.1875 122.015625 310.253906 122.816406 310.351562 C 155.710938 314.300781 120.292969 362.609375 117.96875 365.726562 L 117.863281 365.867188 C 117.859375 365.871094 117.851562 365.882812 117.847656 365.886719 C 173.210938 330.328125 224.523438 317.007812 273.492188 316.542969 C 273.492188 316.542969 267.683594 304.804688 264.011719 289.980469 C 267.070312 288.957031 269.316406 286.160156 269.519531 282.804688 C 269.792969 278.316406 266.101562 274.3125 261.605469 274.222656 C 260.089844 274.191406 258.667969 274.585938 257.449219 275.285156 L 223.054688 231.652344 C 223.238281 231.460938 223.40625 231.261719 223.566406 231.050781 L 256.148438 249.054688 C 255.613281 250.488281 255.453125 252.101562 255.875 253.800781 C 256.699219 257.144531 259.625 259.648438 263.054688 259.921875 C 267.824219 260.304688 271.816406 256.550781 271.816406 251.859375 C 271.816406 248.90625 270.226562 246.332031 267.859375 244.917969 C 271.628906 236.242188 276.886719 225.65625 282.332031 215.210938 C 283.25 213.449219 284.179688 211.683594 285.101562 209.941406 C 286.082031 210.199219 287.175781 210.199219 288.335938 209.679688 C 290.023438 208.921875 291.222656 207.304688 291.347656 205.464844 C 291.457031 203.835938 290.78125 202.371094 289.671875 201.386719 C 294.855469 191.78125 299.648438 183.207031 302.832031 177.566406 C 303.992188 178.011719 305.273438 178.210938 306.628906 178.058594 C 310.566406 177.613281 313.671875 174.28125 313.816406 170.320312 C 313.976562 165.851562 310.511719 162.164062 306.128906 161.949219 Z M 295.566406 81.660156 L 297.882812 104.558594 C 296.574219 104.898438 295.390625 105.554688 294.421875 106.445312 L 269.59375 86.515625 C 269.882812 85.878906 270.054688 85.175781 270.054688 84.433594 C 270.054688 84.296875 270.042969 84.164062 270.035156 84.03125 L 290.5 78.332031 C 291.363281 80.28125 293.304688 81.640625 295.566406 81.660156 Z M 291.964844 113.988281 L 260.925781 125.285156 C 259.039062 120.894531 255.722656 117.269531 251.558594 114.992188 L 263.769531 89.242188 C 264.183594 89.351562 264.617188 89.421875 265.066406 89.421875 C 266.199219 89.421875 267.238281 89.035156 268.082031 88.402344 L 292.902344 108.328125 C 292.210938 109.527344 291.804688 110.910156 291.804688 112.390625 C 291.804688 112.9375 291.863281 113.472656 291.964844 113.988281 Z M 259.28125 145.203125 L 298.175781 167.144531 C 297.851562 168.003906 297.664062 168.925781 297.652344 169.894531 L 271.121094 173.503906 L 262.972656 174.609375 C 262.238281 172.773438 260.441406 171.476562 258.34375 171.476562 C 258.117188 171.476562 257.898438 171.492188 257.683594 171.519531 L 250.328125 153.023438 C 252.890625 151.832031 255.175781 150.144531 257.058594 148.085938 C 257.878906 147.195312 258.625 146.230469 259.28125 145.203125 Z M 257.039062 54.449219 C 272.699219 61.6875 284.636719 69.132812 290.792969 73.25 C 290.324219 74.042969 290.050781 74.964844 290.027344 75.953125 L 269.253906 81.730469 C 268.367188 80.355469 266.824219 79.449219 265.066406 79.449219 C 264.746094 79.449219 264.429688 79.480469 264.128906 79.539062 L 254.5 56.9375 C 255.519531 56.304688 256.386719 55.457031 257.039062 54.449219 Z M 250.609375 58.128906 C 251.183594 58.105469 251.738281 58.019531 252.273438 57.882812 L 261.929688 80.558594 C 260.804688 81.472656 260.082031 82.863281 260.082031 84.433594 C 260.082031 85.863281 260.6875 87.148438 261.652344 88.058594 L 249.367188 113.957031 C 247.921875 113.367188 246.390625 112.933594 244.800781 112.671875 Z M 244.269531 55.488281 C 245.308594 56.628906 246.664062 57.46875 248.203125 57.871094 L 242.398438 112.417969 C 242.046875 112.398438 241.699219 112.390625 241.347656 112.390625 C 235.832031 112.390625 230.808594 114.480469 227.027344 117.917969 L 200.269531 91.609375 C 201.597656 90.164062 202.417969 88.246094 202.417969 86.132812 C 202.417969 85.246094 202.269531 84.394531 202.007812 83.601562 Z M 146.136719 247.367188 C 146.664062 247.558594 147.238281 247.667969 147.832031 247.667969 C 149.019531 247.667969 150.101562 247.253906 150.960938 246.5625 L 175.558594 265.160156 C 175.371094 265.601562 175.25 266.074219 175.195312 266.566406 L 147.507812 270.347656 C 146.84375 268.578125 145.203125 267.285156 143.238281 267.132812 C 143.054688 260.863281 143.960938 254.21875 146.136719 247.367188 Z M 152.78125 242.109375 L 209.636719 229.089844 C 209.953125 229.894531 210.390625 230.640625 210.9375 231.292969 L 182.5 262.710938 C 181.800781 262.339844 181 262.128906 180.152344 262.128906 C 178.960938 262.128906 177.875 262.542969 177.019531 263.234375 L 152.421875 244.636719 C 152.675781 244.039062 152.820312 243.375 152.820312 242.683594 C 152.820312 242.488281 152.804688 242.296875 152.78125 242.109375 Z M 188.945312 315.015625 C 166.519531 312.734375 149.09375 297.652344 144.441406 276.820312 C 146.214844 276.222656 147.535156 274.652344 147.785156 272.753906 L 175.523438 268.964844 C 176.257812 270.804688 178.050781 272.101562 180.152344 272.101562 C 180.171875 272.101562 180.195312 272.097656 180.21875 272.097656 L 190.589844 311.21875 C 189.578125 312.132812 188.941406 313.449219 188.941406 314.914062 C 188.941406 314.949219 188.945312 314.984375 188.945312 315.015625 Z M 182.558594 271.480469 C 184.09375 270.628906 185.132812 268.992188 185.132812 267.113281 C 185.132812 266.085938 184.824219 265.128906 184.292969 264.339844 L 212.746094 232.898438 C 213.128906 233.152344 213.535156 233.375 213.964844 233.558594 L 193.980469 309.929688 L 193.929688 309.929688 C 193.53125 309.929688 193.152344 309.980469 192.78125 310.066406 Z M 198.898438 315.183594 C 198.902344 315.097656 198.914062 315.003906 198.914062 314.914062 C 198.914062 314.027344 198.679688 313.195312 198.273438 312.472656 L 223.433594 278.6875 C 223.996094 278.90625 224.609375 279.035156 225.25 279.035156 C 227.082031 279.035156 228.675781 278.042969 229.542969 276.578125 L 253.375 282.707031 C 253.464844 284.507812 254.128906 286.152344 255.203125 287.453125 C 243.800781 299.007812 228.621094 309.339844 208.925781 313.734375 C 205.523438 314.5 202.175781 314.972656 198.898438 315.183594 Z M 220.265625 274.046875 C 220.265625 275.285156 220.714844 276.414062 221.460938 277.285156 L 196.578125 310.699219 C 196.492188 310.644531 196.410156 310.589844 196.320312 310.542969 L 216.308594 234.171875 C 216.585938 234.199219 216.871094 234.214844 217.164062 234.214844 L 217.191406 234.214844 L 223.214844 269.496094 C 221.476562 270.277344 220.265625 272.019531 220.265625 274.046875 Z M 217.164062 218.035156 C 216.171875 218.035156 215.230469 218.222656 214.359375 218.546875 L 196.449219 186.117188 C 197.382812 185.207031 197.960938 183.941406 197.960938 182.539062 C 197.960938 181.59375 197.691406 180.710938 197.234375 179.957031 L 227.234375 149.667969 C 229.40625 151.585938 231.96875 153.070312 234.785156 153.980469 L 218.015625 218.082031 C 217.734375 218.054688 217.449219 218.035156 217.164062 218.035156 Z M 168.710938 120.675781 L 180.910156 105.308594 L 190.480469 93.25 C 191.621094 93.871094 192.933594 94.222656 194.332031 94.222656 C 195.800781 94.222656 197.179688 93.820312 198.367188 93.128906 L 225.332031 119.648438 C 224.898438 120.140625 224.484375 120.652344 224.105469 121.1875 C 222.113281 123.921875 220.761719 127.144531 220.253906 130.644531 L 170.367188 126.285156 C 170.382812 126.0625 170.402344 125.839844 170.402344 125.609375 C 170.402344 123.75 169.765625 122.042969 168.710938 120.675781 Z M 169.800781 128.667969 L 220.050781 133.054688 C 220.046875 133.269531 220.035156 133.484375 220.035156 133.699219 C 220.035156 135.921875 220.375 138.058594 221.003906 140.074219 L 204.996094 146.101562 C 204.148438 144.570312 202.515625 143.53125 200.640625 143.53125 C 199.253906 143.53125 198.003906 144.097656 197.097656 145.007812 L 169.761719 128.773438 C 169.777344 128.734375 169.785156 128.699219 169.800781 128.667969 Z M 201.300781 153.453125 C 203.742188 153.128906 205.625 151.046875 205.625 148.519531 L 205.625 148.453125 L 221.863281 142.335938 C 222.78125 144.402344 224.019531 146.304688 225.511719 147.96875 L 195.519531 178.257812 C 195.457031 178.222656 195.398438 178.183594 195.335938 178.148438 Z M 200.902344 81.429688 C 199.757812 79.828125 198.042969 78.664062 196.050781 78.226562 L 197.121094 59.121094 C 199.160156 58.730469 200.75 57.109375 201.097656 55.058594 L 242.378906 51.878906 C 242.507812 52.4375 242.695312 52.96875 242.925781 53.476562 Z M 152.648438 37.710938 C 153.054688 37.625 153.46875 37.539062 153.878906 37.453125 C 161.671875 35.839844 169.894531 34.925781 178.464844 35.015625 C 201.613281 35.246094 223.726562 41.042969 242.378906 48.238281 C 242.285156 48.636719 242.222656 49.046875 242.191406 49.464844 L 200.914062 52.644531 C 200.25 50.667969 198.386719 49.238281 196.183594 49.238281 C 194.371094 49.238281 192.785156 50.210938 191.914062 51.664062 L 153.269531 39.933594 L 152.597656 39.726562 C 152.65625 39.34375 152.695312 38.960938 152.695312 38.5625 C 152.695312 38.273438 152.675781 37.992188 152.648438 37.710938 Z M 151.902344 42.039062 L 152.757812 42.300781 L 191.210938 53.976562 C 191.207031 54.058594 191.203125 54.140625 191.203125 54.222656 C 191.203125 56.464844 192.675781 58.355469 194.710938 58.988281 L 193.640625 78.078125 C 191.75 78.238281 190.046875 79.046875 188.753906 80.28125 L 152.34375 44.472656 L 151.152344 43.304688 C 151.4375 42.90625 151.6875 42.488281 151.902344 42.039062 Z M 137.324219 42.070312 C 138.082031 43.640625 139.328125 44.929688 140.871094 45.734375 L 130.707031 75.484375 C 130.570312 75.46875 130.433594 75.460938 130.292969 75.460938 C 128.390625 75.460938 126.738281 76.523438 125.898438 78.089844 L 91.191406 73.871094 C 91.144531 72.160156 90.566406 70.59375 89.617188 69.3125 C 99.8125 60.96875 116.429688 49.410156 137.324219 42.070312 Z M 155.707031 120.949219 L 90.4375 77.53125 C 90.625 77.128906 90.78125 76.707031 90.90625 76.273438 L 125.304688 80.453125 C 125.308594 83.203125 127.542969 85.433594 130.292969 85.433594 C 130.90625 85.433594 131.488281 85.316406 132.035156 85.113281 L 156.335938 120.175781 C 156.113281 120.421875 155.898438 120.675781 155.707031 120.949219 Z M 158.21875 118.644531 L 134.023438 83.742188 C 134.800781 82.863281 135.277344 81.714844 135.277344 80.449219 C 135.277344 78.691406 134.371094 77.148438 133 76.265625 L 143.160156 46.515625 C 143.632812 46.597656 144.113281 46.652344 144.605469 46.652344 C 144.734375 46.652344 144.859375 46.640625 144.988281 46.628906 L 159.332031 118.09375 C 158.945312 118.25 158.574219 118.433594 158.21875 118.644531 Z M 161.691406 117.550781 L 147.363281 46.160156 C 148.117188 45.886719 148.820312 45.5 149.453125 45.027344 L 151.882812 47.414062 L 187.257812 82.203125 C 186.609375 83.367188 186.238281 84.707031 186.238281 86.132812 C 186.238281 88.332031 187.121094 90.324219 188.546875 91.785156 L 178.792969 104.074219 L 166.957031 118.996094 C 165.640625 118.066406 164.042969 117.519531 162.3125 117.519531 C 162.101562 117.519531 161.894531 117.539062 161.691406 117.550781 Z M 166.765625 132.363281 C 167.410156 131.933594 167.988281 131.417969 168.488281 130.828125 L 195.859375 147.089844 C 195.726562 147.542969 195.652344 148.023438 195.652344 148.519531 C 195.652344 150.652344 196.992188 152.46875 198.878906 153.179688 L 192.992188 177.554688 L 192.972656 177.554688 C 192.570312 177.554688 192.179688 177.609375 191.800781 177.703125 Z M 175.925781 204.742188 C 182.136719 199.210938 187.007812 193.210938 190.65625 186.957031 C 191.351562 187.316406 192.136719 187.527344 192.972656 187.527344 C 193.453125 187.527344 193.914062 187.457031 194.359375 187.332031 L 212.238281 219.714844 C 210.316406 221.195312 209.070312 223.511719 209.070312 226.125 C 209.070312 226.332031 209.085938 226.53125 209.101562 226.734375 L 151.914062 239.824219 C 151.382812 239.070312 150.65625 238.472656 149.804688 238.101562 C 155.015625 227.140625 163.5 215.820312 175.925781 204.742188 Z M 255.550781 276.789062 C 254.640625 277.757812 253.96875 278.949219 253.625 280.273438 L 230.226562 274.253906 C 230.226562 274.183594 230.238281 274.121094 230.238281 274.046875 C 230.238281 271.410156 228.191406 269.257812 225.601562 269.082031 L 219.578125 233.847656 C 220.136719 233.671875 220.660156 233.433594 221.160156 233.152344 Z M 221.332031 219.203125 C 221.019531 219.015625 220.695312 218.839844 220.355469 218.691406 L 237.128906 154.589844 C 238.492188 154.867188 239.902344 155.011719 241.347656 155.011719 C 243.699219 155.011719 245.964844 154.625 248.082031 153.917969 L 255.433594 172.417969 C 254.179688 173.320312 253.355469 174.792969 253.355469 176.460938 C 253.355469 177.566406 253.722656 178.582031 254.328125 179.40625 Z M 257.316406 246.9375 L 224.742188 228.933594 C 225.066406 228.058594 225.25 227.117188 225.25 226.125 C 225.25 224.0625 224.46875 222.179688 223.191406 220.75 L 256.1875 180.953125 C 256.558594 181.128906 256.953125 181.269531 257.367188 181.351562 L 261.9375 243.976562 C 260.066406 244.398438 258.449219 245.46875 257.316406 246.9375 Z M 281.671875 211.265625 C 275.683594 222.664062 269.761719 234.472656 265.621094 244.003906 C 265.210938 243.90625 264.785156 243.835938 264.351562 243.804688 L 259.785156 181.234375 C 260.164062 181.117188 260.519531 180.960938 260.859375 180.761719 L 279.300781 199.621094 L 282.128906 202.511719 C 281.660156 203.273438 281.386719 204.164062 281.386719 205.125 C 281.386719 206.570312 282.003906 207.863281 282.980469 208.773438 C 282.542969 209.601562 282.105469 210.433594 281.671875 211.265625 Z M 287.523438 200.273438 C 287.152344 200.1875 286.769531 200.136719 286.371094 200.136719 C 285.453125 200.136719 284.59375 200.386719 283.859375 200.820312 L 278.171875 195.007812 L 262.585938 179.066406 C 262.964844 178.457031 263.214844 177.757812 263.296875 177.007812 L 272.046875 175.820312 L 297.976562 172.292969 C 298.449219 173.925781 299.425781 175.339844 300.730469 176.367188 C 297.535156 182.027344 292.730469 190.628906 287.523438 200.273438 Z M 299.367188 165.039062 L 260.472656 143.101562 C 261.867188 140.265625 262.65625 137.078125 262.65625 133.699219 C 262.65625 131.566406 262.339844 129.503906 261.753906 127.5625 L 292.789062 116.261719 C 294.105469 118.667969 296.601562 120.316406 299.496094 120.457031 L 303.722656 162.191406 C 301.972656 162.640625 300.449219 163.65625 299.367188 165.039062 Z M 299.367188 165.039062 " fill-opacity="1" fill-rule="nonzero"/><path fill="#fff743" d="M 173.109375 78.855469 C 173.109375 79.195312 173.046875 79.523438 172.914062 79.839844 C 172.785156 80.15625 172.597656 80.433594 172.355469 80.675781 C 172.113281 80.917969 171.835938 81.105469 171.519531 81.234375 C 171.203125 81.367188 170.875 81.429688 170.535156 81.429688 C 170.191406 81.429688 169.863281 81.367188 169.546875 81.234375 C 169.234375 81.105469 168.953125 80.917969 168.710938 80.675781 C 168.472656 80.433594 168.285156 80.15625 168.152344 79.839844 C 168.023438 79.523438 167.957031 79.195312 167.957031 78.855469 C 167.957031 78.511719 168.023438 78.183594 168.152344 77.867188 C 168.285156 77.550781 168.472656 77.273438 168.710938 77.03125 C 168.953125 76.789062 169.234375 76.605469 169.546875 76.472656 C 169.863281 76.34375 170.191406 76.277344 170.535156 76.277344 C 170.875 76.277344 171.203125 76.34375 171.519531 76.472656 C 171.835938 76.605469 172.113281 76.789062 172.355469 77.03125 C 172.597656 77.273438 172.785156 77.550781 172.914062 77.867188 C 173.046875 78.183594 173.109375 78.511719 173.109375 78.855469 Z M 173.109375 78.855469 " fill-opacity="1" fill-rule="nonzero"/><path fill="#fff743" d="M 188.550781 42.625 C 188.550781 43.003906 188.480469 43.367188 188.332031 43.71875 C 188.1875 44.070312 187.980469 44.378906 187.710938 44.648438 C 187.445312 44.917969 187.132812 45.125 186.785156 45.269531 C 186.433594 45.414062 186.066406 45.488281 185.6875 45.488281 C 185.308594 45.488281 184.941406 45.414062 184.589844 45.269531 C 184.242188 45.125 183.929688 44.917969 183.660156 44.648438 C 183.394531 44.378906 183.1875 44.070312 183.042969 43.71875 C 182.894531 43.367188 182.824219 43.003906 182.824219 42.625 C 182.824219 42.242188 182.894531 41.878906 183.042969 41.527344 C 183.1875 41.175781 183.394531 40.867188 183.660156 40.597656 C 183.929688 40.328125 184.242188 40.121094 184.589844 39.976562 C 184.941406 39.832031 185.308594 39.757812 185.6875 39.757812 C 186.066406 39.757812 186.433594 39.832031 186.785156 39.976562 C 187.132812 40.121094 187.445312 40.328125 187.710938 40.597656 C 187.980469 40.867188 188.1875 41.175781 188.332031 41.527344 C 188.480469 41.878906 188.550781 42.242188 188.550781 42.625 Z M 188.550781 42.625 " fill-opacity="1" fill-rule="nonzero"/><path fill="#fff743" d="M 242.378906 19.394531 C 242.378906 19.90625 242.328125 20.414062 242.230469 20.917969 C 242.128906 21.421875 241.980469 21.914062 241.785156 22.386719 C 241.585938 22.859375 241.347656 23.3125 241.0625 23.738281 C 240.777344 24.164062 240.453125 24.5625 240.089844 24.925781 C 239.726562 25.289062 239.332031 25.613281 238.902344 25.898438 C 238.476562 26.183594 238.027344 26.421875 237.550781 26.621094 C 237.078125 26.816406 236.585938 26.964844 236.085938 27.066406 C 235.582031 27.164062 235.070312 27.214844 234.558594 27.214844 C 234.046875 27.214844 233.535156 27.164062 233.03125 27.0625 C 232.527344 26.964844 232.039062 26.816406 231.566406 26.621094 C 231.089844 26.421875 230.640625 26.183594 230.214844 25.898438 C 229.785156 25.613281 229.390625 25.289062 229.027344 24.925781 C 228.664062 24.5625 228.339844 24.164062 228.054688 23.738281 C 227.769531 23.3125 227.53125 22.859375 227.332031 22.386719 C 227.136719 21.914062 226.988281 21.421875 226.886719 20.917969 C 226.789062 20.414062 226.738281 19.90625 226.738281 19.394531 C 226.738281 18.878906 226.789062 18.371094 226.886719 17.867188 C 226.988281 17.363281 227.136719 16.875 227.332031 16.402344 C 227.53125 15.925781 227.769531 15.476562 228.054688 15.050781 C 228.339844 14.621094 228.664062 14.226562 229.027344 13.863281 C 229.390625 13.5 229.785156 13.175781 230.214844 12.890625 C 230.640625 12.605469 231.089844 12.363281 231.566406 12.167969 C 232.039062 11.972656 232.527344 11.824219 233.03125 11.722656 C 233.535156 11.625 234.046875 11.574219 234.558594 11.574219 C 235.070312 11.574219 235.582031 11.625 236.085938 11.722656 C 236.585938 11.824219 237.078125 11.972656 237.550781 12.167969 C 238.027344 12.363281 238.476562 12.605469 238.902344 12.890625 C 239.332031 13.175781 239.726562 13.5 240.089844 13.863281 C 240.453125 14.226562 240.777344 14.621094 241.0625 15.050781 C 241.347656 15.476562 241.585938 15.925781 241.785156 16.402344 C 241.980469 16.875 242.128906 17.363281 242.230469 17.867188 C 242.328125 18.371094 242.378906 18.878906 242.378906 19.394531 Z M 242.378906 19.394531 " fill-opacity="1" fill-rule="nonzero"/><path fill="#fff743" d="M 335.539062 72.214844 C 335.539062 72.535156 335.480469 72.839844 335.359375 73.132812 C 335.238281 73.421875 335.0625 73.683594 334.839844 73.90625 C 334.617188 74.128906 334.355469 74.300781 334.066406 74.425781 C 333.773438 74.546875 333.46875 74.605469 333.152344 74.605469 C 332.832031 74.605469 332.527344 74.546875 332.234375 74.425781 C 331.945312 74.300781 331.683594 74.128906 331.460938 73.90625 C 331.238281 73.683594 331.0625 73.421875 330.941406 73.132812 C 330.820312 72.839844 330.761719 72.535156 330.761719 72.214844 C 330.761719 71.898438 330.820312 71.59375 330.941406 71.300781 C 331.0625 71.007812 331.238281 70.75 331.460938 70.527344 C 331.683594 70.304688 331.945312 70.128906 332.234375 70.007812 C 332.527344 69.886719 332.832031 69.828125 333.152344 69.828125 C 333.46875 69.828125 333.773438 69.886719 334.066406 70.007812 C 334.355469 70.128906 334.617188 70.304688 334.839844 70.527344 C 335.0625 70.75 335.238281 71.007812 335.359375 71.300781 C 335.480469 71.59375 335.539062 71.898438 335.539062 72.214844 Z M 335.539062 72.214844 " fill-opacity="1" fill-rule="nonzero"/><path fill="#fff743" d="M 323.484375 109.710938 C 323.484375 109.945312 323.441406 110.167969 323.351562 110.378906 C 323.261719 110.59375 323.136719 110.78125 322.972656 110.945312 C 322.808594 111.109375 322.621094 111.238281 322.40625 111.324219 C 322.191406 111.414062 321.96875 111.457031 321.738281 111.457031 C 321.507812 111.457031 321.285156 111.414062 321.070312 111.324219 C 320.855469 111.238281 320.667969 111.109375 320.503906 110.945312 C 320.339844 110.78125 320.214844 110.59375 320.125 110.378906 C 320.039062 110.167969 319.992188 109.945312 319.992188 109.710938 C 319.992188 109.480469 320.039062 109.257812 320.125 109.046875 C 320.214844 108.832031 320.339844 108.640625 320.503906 108.480469 C 320.667969 108.316406 320.855469 108.1875 321.070312 108.101562 C 321.285156 108.011719 321.507812 107.96875 321.738281 107.96875 C 321.96875 107.96875 322.191406 108.011719 322.40625 108.101562 C 322.621094 108.1875 322.808594 108.316406 322.972656 108.480469 C 323.136719 108.640625 323.261719 108.832031 323.351562 109.046875 C 323.441406 109.257812 323.484375 109.480469 323.484375 109.710938 Z M 323.484375 109.710938 " fill-opacity="1" fill-rule="nonzero"/><path fill="#fff743" d="M 286.910156 39.765625 C 286.910156 40.183594 286.832031 40.589844 286.667969 40.976562 C 286.507812 41.367188 286.277344 41.707031 285.980469 42.003906 C 285.683594 42.304688 285.34375 42.53125 284.953125 42.691406 C 284.566406 42.855469 284.160156 42.933594 283.742188 42.933594 C 283.320312 42.933594 282.914062 42.855469 282.527344 42.691406 C 282.136719 42.53125 281.796875 42.304688 281.5 42.003906 C 281.199219 41.707031 280.972656 41.367188 280.8125 40.976562 C 280.648438 40.589844 280.570312 40.183594 280.570312 39.765625 C 280.570312 39.34375 280.648438 38.9375 280.8125 38.550781 C 280.972656 38.160156 281.199219 37.820312 281.5 37.523438 C 281.796875 37.226562 282.136719 36.996094 282.527344 36.835938 C 282.914062 36.671875 283.320312 36.59375 283.742188 36.59375 C 284.160156 36.59375 284.566406 36.671875 284.953125 36.835938 C 285.34375 36.996094 285.683594 37.226562 285.980469 37.523438 C 286.277344 37.820312 286.507812 38.160156 286.667969 38.550781 C 286.832031 38.9375 286.910156 39.34375 286.910156 39.765625 Z M 286.910156 39.765625 " fill-opacity="1" fill-rule="nonzero"/><path fill="#fff743" d="M 328.640625 145.207031 C 328.640625 145.503906 328.613281 145.796875 328.554688 146.089844 C 328.496094 146.378906 328.410156 146.660156 328.296875 146.933594 C 328.183594 147.210938 328.046875 147.46875 327.882812 147.714844 C 327.714844 147.960938 327.527344 148.191406 327.320312 148.398438 C 327.109375 148.609375 326.882812 148.796875 326.636719 148.960938 C 326.390625 149.125 326.128906 149.265625 325.855469 149.378906 C 325.582031 149.492188 325.300781 149.578125 325.007812 149.636719 C 324.71875 149.691406 324.425781 149.722656 324.128906 149.722656 C 323.832031 149.722656 323.539062 149.691406 323.246094 149.636719 C 322.957031 149.578125 322.675781 149.492188 322.402344 149.378906 C 322.128906 149.265625 321.867188 149.125 321.621094 148.960938 C 321.375 148.796875 321.144531 148.609375 320.9375 148.398438 C 320.726562 148.191406 320.539062 147.960938 320.375 147.714844 C 320.210938 147.46875 320.070312 147.210938 319.957031 146.933594 C 319.84375 146.660156 319.757812 146.378906 319.703125 146.089844 C 319.644531 145.796875 319.613281 145.503906 319.613281 145.207031 C 319.613281 144.910156 319.644531 144.617188 319.703125 144.328125 C 319.757812 144.035156 319.84375 143.753906 319.957031 143.480469 C 320.070312 143.207031 320.210938 142.945312 320.375 142.699219 C 320.539062 142.453125 320.726562 142.226562 320.9375 142.015625 C 321.144531 141.808594 321.375 141.621094 321.621094 141.457031 C 321.867188 141.289062 322.128906 141.152344 322.402344 141.039062 C 322.675781 140.925781 322.957031 140.839844 323.246094 140.78125 C 323.539062 140.722656 323.832031 140.695312 324.128906 140.695312 C 324.425781 140.695312 324.71875 140.722656 325.007812 140.78125 C 325.300781 140.839844 325.582031 140.925781 325.855469 141.039062 C 326.128906 141.152344 326.390625 141.289062 326.636719 141.457031 C 326.882812 141.621094 327.109375 141.808594 327.320312 142.015625 C 327.527344 142.226562 327.714844 142.453125 327.882812 142.699219 C 328.046875 142.945312 328.183594 143.207031 328.296875 143.480469 C 328.410156 143.753906 328.496094 144.035156 328.554688 144.328125 C 328.613281 144.617188 328.640625 144.910156 328.640625 145.207031 Z M 328.640625 145.207031 " fill-opacity="1" fill-rule="nonzero"/><path fill="#fff743" d="M 300.730469 244.34375 C 300.730469 244.863281 300.628906 245.359375 300.433594 245.839844 C 300.234375 246.320312 299.949219 246.742188 299.585938 247.109375 C 299.21875 247.476562 298.792969 247.757812 298.316406 247.957031 C 297.835938 248.15625 297.335938 248.253906 296.820312 248.253906 C 296.300781 248.253906 295.800781 248.15625 295.324219 247.957031 C 294.84375 247.757812 294.421875 247.476562 294.054688 247.109375 C 293.6875 246.742188 293.40625 246.320312 293.207031 245.839844 C 293.007812 245.359375 292.910156 244.863281 292.910156 244.34375 C 292.910156 243.824219 293.007812 243.328125 293.207031 242.847656 C 293.40625 242.367188 293.6875 241.945312 294.054688 241.578125 C 294.421875 241.210938 294.84375 240.929688 295.324219 240.730469 C 295.800781 240.53125 296.300781 240.433594 296.820312 240.433594 C 297.335938 240.433594 297.835938 240.53125 298.316406 240.730469 C 298.792969 240.929688 299.21875 241.210938 299.585938 241.578125 C 299.949219 241.945312 300.234375 242.367188 300.433594 242.847656 C 300.628906 243.328125 300.730469 243.824219 300.730469 244.34375 Z M 300.730469 244.34375 " fill-opacity="1" fill-rule="nonzero"/><path fill="#fff743" d="M 242.933594 173.929688 C 242.933594 174.261719 242.867188 174.582031 242.742188 174.890625 C 242.613281 175.199219 242.429688 175.472656 242.195312 175.707031 C 241.957031 175.945312 241.6875 176.125 241.378906 176.253906 C 241.070312 176.382812 240.75 176.445312 240.414062 176.445312 C 240.082031 176.445312 239.761719 176.382812 239.453125 176.253906 C 239.144531 176.125 238.871094 175.945312 238.636719 175.707031 C 238.398438 175.472656 238.21875 175.199219 238.089844 174.890625 C 237.960938 174.582031 237.898438 174.261719 237.898438 173.929688 C 237.898438 173.59375 237.960938 173.273438 238.089844 172.964844 C 238.21875 172.65625 238.398438 172.386719 238.636719 172.148438 C 238.871094 171.914062 239.144531 171.730469 239.453125 171.601562 C 239.761719 171.476562 240.082031 171.410156 240.414062 171.410156 C 240.75 171.410156 241.070312 171.476562 241.378906 171.601562 C 241.6875 171.730469 241.957031 171.914062 242.195312 172.148438 C 242.429688 172.386719 242.613281 172.65625 242.742188 172.964844 C 242.867188 173.273438 242.933594 173.59375 242.933594 173.929688 Z M 242.933594 173.929688 " fill-opacity="1" fill-rule="nonzero"/><path fill="#fff743" d="M 251.558594 214.0625 C 251.558594 214.28125 251.515625 214.496094 251.429688 214.703125 C 251.34375 214.90625 251.222656 215.089844 251.066406 215.246094 C 250.910156 215.402344 250.726562 215.523438 250.523438 215.609375 C 250.316406 215.695312 250.101562 215.738281 249.878906 215.738281 C 249.65625 215.738281 249.445312 215.695312 249.238281 215.609375 C 249.035156 215.523438 248.851562 215.402344 248.695312 215.246094 C 248.539062 215.089844 248.417969 214.90625 248.332031 214.703125 C 248.246094 214.496094 248.203125 214.28125 248.203125 214.0625 C 248.203125 213.839844 248.246094 213.625 248.332031 213.417969 C 248.417969 213.214844 248.539062 213.03125 248.695312 212.875 C 248.851562 212.71875 249.035156 212.597656 249.238281 212.511719 C 249.445312 212.425781 249.65625 212.382812 249.878906 212.382812 C 250.101562 212.382812 250.316406 212.425781 250.523438 212.511719 C 250.726562 212.597656 250.910156 212.71875 251.066406 212.875 C 251.222656 213.03125 251.34375 213.214844 251.429688 213.417969 C 251.515625 213.625 251.558594 213.839844 251.558594 214.0625 Z M 251.558594 214.0625 " fill-opacity="1" fill-rule="nonzero"/><path fill="#fff743" d="M 188.550781 215.25 C 188.550781 215.628906 188.480469 215.992188 188.332031 216.34375 C 188.1875 216.695312 187.980469 217.003906 187.710938 217.273438 C 187.445312 217.542969 187.132812 217.75 186.785156 217.894531 C 186.433594 218.039062 186.066406 218.113281 185.6875 218.113281 C 185.308594 218.113281 184.941406 218.039062 184.589844 217.894531 C 184.242188 217.75 183.929688 217.542969 183.660156 217.273438 C 183.394531 217.003906 183.1875 216.695312 183.042969 216.34375 C 182.894531 215.992188 182.824219 215.628906 182.824219 215.25 C 182.824219 214.867188 182.894531 214.503906 183.042969 214.152344 C 183.1875 213.800781 183.394531 213.492188 183.660156 213.222656 C 183.929688 212.953125 184.242188 212.746094 184.589844 212.601562 C 184.941406 212.457031 185.308594 212.382812 185.6875 212.382812 C 186.066406 212.382812 186.433594 212.457031 186.785156 212.601562 C 187.132812 212.746094 187.445312 212.953125 187.710938 213.222656 C 187.980469 213.492188 188.1875 213.800781 188.332031 214.152344 C 188.480469 214.503906 188.550781 214.867188 188.550781 215.25 Z M 188.550781 215.25 " fill-opacity="1" fill-rule="nonzero"/><path fill="#fff743" d="M 234.785156 86.605469 C 234.785156 86.871094 234.761719 87.132812 234.710938 87.390625 C 234.65625 87.652344 234.582031 87.902344 234.480469 88.148438 C 234.378906 88.390625 234.253906 88.621094 234.109375 88.84375 C 233.960938 89.0625 233.792969 89.265625 233.609375 89.453125 C 233.421875 89.640625 233.21875 89.804688 233 89.953125 C 232.777344 90.101562 232.546875 90.222656 232.300781 90.324219 C 232.058594 90.425781 231.804688 90.503906 231.546875 90.554688 C 231.289062 90.605469 231.027344 90.632812 230.761719 90.632812 C 230.496094 90.632812 230.234375 90.605469 229.976562 90.554688 C 229.71875 90.503906 229.464844 90.425781 229.222656 90.324219 C 228.976562 90.222656 228.746094 90.101562 228.527344 89.953125 C 228.304688 89.804688 228.101562 89.640625 227.917969 89.453125 C 227.730469 89.265625 227.5625 89.0625 227.414062 88.84375 C 227.269531 88.621094 227.144531 88.390625 227.042969 88.148438 C 226.941406 87.902344 226.867188 87.652344 226.816406 87.390625 C 226.761719 87.132812 226.738281 86.871094 226.738281 86.605469 C 226.738281 86.34375 226.761719 86.082031 226.816406 85.820312 C 226.867188 85.5625 226.941406 85.308594 227.042969 85.066406 C 227.144531 84.820312 227.269531 84.589844 227.414062 84.371094 C 227.5625 84.152344 227.730469 83.949219 227.917969 83.761719 C 228.101562 83.574219 228.304688 83.40625 228.527344 83.261719 C 228.746094 83.113281 228.976562 82.988281 229.222656 82.886719 C 229.464844 82.789062 229.71875 82.710938 229.976562 82.660156 C 230.234375 82.609375 230.496094 82.582031 230.761719 82.582031 C 231.027344 82.582031 231.289062 82.609375 231.546875 82.660156 C 231.804688 82.710938 232.058594 82.789062 232.300781 82.886719 C 232.546875 82.988281 232.777344 83.113281 233 83.261719 C 233.21875 83.40625 233.421875 83.574219 233.609375 83.761719 C 233.796875 83.949219 233.960938 84.152344 234.109375 84.371094 C 234.253906 84.589844 234.378906 84.820312 234.480469 85.066406 C 234.582031 85.308594 234.65625 85.5625 234.710938 85.820312 C 234.761719 86.082031 234.785156 86.34375 234.785156 86.605469 Z M 234.785156 86.605469 " fill-opacity="1" fill-rule="nonzero"/><path fill="#fff743" d="M 329.023438 30.472656 C 329.023438 30.835938 328.988281 31.195312 328.917969 31.554688 C 328.847656 31.910156 328.742188 32.257812 328.601562 32.59375 C 328.464844 32.929688 328.292969 33.246094 328.089844 33.550781 C 327.890625 33.851562 327.660156 34.132812 327.402344 34.390625 C 327.144531 34.648438 326.863281 34.878906 326.5625 35.078125 C 326.261719 35.28125 325.941406 35.453125 325.605469 35.589844 C 325.269531 35.730469 324.921875 35.835938 324.566406 35.90625 C 324.207031 35.976562 323.847656 36.011719 323.484375 36.011719 C 323.121094 36.011719 322.761719 35.976562 322.402344 35.90625 C 322.046875 35.835938 321.699219 35.730469 321.363281 35.589844 C 321.027344 35.453125 320.707031 35.28125 320.40625 35.078125 C 320.101562 34.878906 319.824219 34.648438 319.566406 34.390625 C 319.308594 34.132812 319.078125 33.851562 318.875 33.550781 C 318.675781 33.246094 318.503906 32.929688 318.363281 32.59375 C 318.226562 32.257812 318.121094 31.910156 318.050781 31.554688 C 317.976562 31.195312 317.941406 30.835938 317.941406 30.472656 C 317.941406 30.109375 317.976562 29.746094 318.050781 29.390625 C 318.121094 29.035156 318.226562 28.6875 318.363281 28.351562 C 318.503906 28.015625 318.675781 27.695312 318.875 27.394531 C 319.078125 27.089844 319.308594 26.8125 319.566406 26.554688 C 319.824219 26.296875 320.101562 26.066406 320.40625 25.863281 C 320.707031 25.664062 321.027344 25.492188 321.363281 25.351562 C 321.699219 25.214844 322.046875 25.109375 322.402344 25.035156 C 322.761719 24.964844 323.121094 24.929688 323.484375 24.929688 C 323.847656 24.929688 324.207031 24.964844 324.566406 25.035156 C 324.921875 25.109375 325.269531 25.214844 325.605469 25.351562 C 325.941406 25.492188 326.261719 25.664062 326.5625 25.863281 C 326.863281 26.066406 327.144531 26.296875 327.402344 26.554688 C 327.660156 26.8125 327.890625 27.089844 328.089844 27.394531 C 328.292969 27.695312 328.464844 28.015625 328.601562 28.351562 C 328.742188 28.6875 328.847656 29.035156 328.917969 29.390625 C 328.988281 29.746094 329.023438 30.109375 329.023438 30.472656 Z M 329.023438 30.472656 " fill-opacity="1" fill-rule="nonzero"/><g mask="url(#c809cf620e)"><g transform="matrix(1, 0, 0, 1, 37, 117)"><g clip-path="url(#1a03778842)"><g clip-path="url(#6936b18819)"><path fill="#fff743" d="M 80.96875 248.726562 C 83.292969 245.609375 118.710938 197.300781 85.816406 193.351562 C 85.015625 193.253906 84.167969 193.1875 83.289062 193.144531 C 44.902344 191.316406 29.550781 191.398438 35.550781 169.628906 C 39.300781 156.019531 34.539062 149.957031 30.449219 147.324219 C 28.457031 146.050781 28.300781 143.183594 30.078125 141.613281 L 36.882812 135.628906 L 27.984375 133.34375 C 24.394531 132.421875 22.453125 128.507812 23.929688 125.109375 C 25.738281 120.9375 26.804688 115.90625 22.664062 114.078125 C 18.574219 112.269531 11.289062 109.878906 5.46875 108.066406 C 1.351562 106.78125 -0.132812 101.734375 2.621094 98.425781 C 12.160156 87.007812 30.09375 64.367188 33.324219 52.082031 C 36.550781 39.839844 29.382812 18.03125 25.871094 1.28125 C 25.867188 1.273438 25.867188 1.265625 25.867188 1.261719 C 25.867188 1.253906 25.867188 1.253906 25.867188 1.253906 C 25.867188 1.253906 25.871094 1.253906 25.875 1.261719 L 79.738281 15.179688 L 99.144531 20.191406 C 103.722656 21.371094 107.753906 24.082031 110.578125 27.875 L 110.953125 28.363281 L 134.332031 58.769531 C 136.28125 61.300781 136.691406 64.695312 135.402344 67.621094 L 126.980469 86.75 C 126.980469 86.75 51.082031 161.378906 106.214844 190.402344 C 161.351562 219.433594 182.203125 191.265625 236.492188 199.542969 C 187.523438 200.007812 136.210938 213.328125 80.847656 248.886719 C 80.851562 248.882812 80.859375 248.871094 80.863281 248.867188 Z M 80.96875 248.726562 " fill-opacity="1" fill-rule="nonzero"/></g></g></g></g><g mask="url(#7499745230)"><g transform="matrix(1, 0, 0, 1, 37, 117)"><g clip-path="url(#0099e260ae)"><g clip-path="url(#2ab731b8fe)"><path fill="#000000" d="M 101.855469 112.089844 C 78.492188 156.851562 80.550781 181.148438 85.816406 193.351562 C 85.015625 193.253906 84.167969 193.1875 83.289062 193.144531 C 44.902344 191.316406 29.550781 191.398438 35.550781 169.628906 C 39.300781 156.019531 34.539062 149.957031 30.449219 147.324219 C 28.457031 146.050781 28.300781 143.183594 30.078125 141.613281 L 36.882812 135.628906 L 27.984375 133.34375 C 24.394531 132.421875 22.453125 128.507812 23.929688 125.109375 C 25.738281 120.9375 26.804688 115.90625 22.664062 114.078125 C 18.574219 112.269531 11.289062 109.878906 5.46875 108.066406 C 1.351562 106.78125 -0.132812 101.734375 2.621094 98.425781 C 12.160156 87.007812 30.09375 64.367188 33.324219 52.082031 C 36.550781 39.839844 29.382812 18.03125 25.871094 1.28125 C 25.867188 1.273438 25.867188 1.265625 25.867188 1.261719 C 25.867188 1.253906 25.867188 1.253906 25.867188 1.253906 C 25.867188 1.253906 25.871094 1.253906 25.875 1.261719 L 79.738281 15.179688 L 99.144531 20.191406 C 103.722656 21.371094 107.753906 24.082031 110.578125 27.875 L 110.953125 28.363281 C 119.167969 42.835938 124.285156 69.113281 101.855469 112.089844 Z M 101.855469 112.089844 " fill-opacity="1" fill-rule="nonzero"/></g></g></g></g><g mask="url(#20ca8dc9ab)"><g transform="matrix(1, 0, 0, 1, 37, 117)"><g clip-path="url(#949e89a42d)"><g clip-path="url(#6ba861bf14)"><path fill="#fff743" d="M 80.96875 248.726562 C 83.347656 245.535156 120.457031 194.921875 83.289062 193.144531 C 44.902344 191.316406 29.550781 191.398438 35.550781 169.628906 C 39.300781 156.019531 34.539062 149.957031 30.449219 147.324219 C 28.457031 146.050781 28.300781 143.183594 30.078125 141.613281 L 36.882812 135.628906 L 27.984375 133.34375 C 24.394531 132.421875 22.453125 128.507812 23.929688 125.109375 C 25.738281 120.9375 26.804688 115.90625 22.664062 114.078125 C 18.574219 112.269531 11.289062 109.878906 5.46875 108.066406 C 1.351562 106.78125 -0.132812 101.734375 2.621094 98.425781 C 12.160156 87.007812 30.09375 64.367188 33.324219 52.082031 C 36.550781 39.839844 29.382812 18.03125 25.871094 1.28125 C 25.867188 1.273438 25.867188 1.265625 25.867188 1.261719 C 25.867188 1.253906 25.867188 1.253906 25.867188 1.253906 C 25.867188 1.253906 25.871094 1.253906 25.875 1.261719 L 79.738281 15.179688 L 86.746094 25.914062 C 99.578125 45.566406 101.121094 70.527344 90.808594 91.609375 L 79.078125 115.59375 C 65.378906 143.59375 78.972656 177.285156 108.257812 187.945312 C 120.886719 192.542969 124.164062 208.878906 114.289062 217.992188 Z M 80.96875 248.726562 " fill-opacity="1" fill-rule="nonzero"/></g></g></g></g><g mask="url(#647be10b61)"><g transform="matrix(1, 0, 0, 1, 79, 85)"><g clip-path="url(#e6a3489576)"><path fill="#000000" d="M 98.554688 99.691406 C 100.644531 96.757812 100.722656 92.84375 98.746094 89.828125 L 73.53125 51.3125 C 71.734375 48.574219 69.320312 46.296875 66.476562 44.671875 L 1.105469 7.308594 C 7.515625 4.570312 13.800781 2.515625 19.925781 1.082031 L 76.070312 41.847656 C 77.714844 43.039062 79.058594 44.601562 79.996094 46.40625 L 101.484375 87.886719 C 103.996094 92.734375 103.230469 98.632812 99.5625 102.675781 L 84.980469 118.746094 Z M 98.554688 99.691406 " fill-opacity="1" fill-rule="nonzero"/></g></g></g><path fill="#fff743" d="M 177.554688 184.691406 C 179.644531 181.757812 179.722656 177.84375 177.746094 174.828125 L 152.53125 136.3125 C 150.734375 133.574219 148.320312 131.296875 145.476562 129.671875 L 80.105469 92.308594 C 86.515625 89.570312 92.800781 87.515625 98.925781 86.082031 L 155.070312 126.847656 C 156.714844 128.039062 158.058594 129.601562 158.996094 131.40625 L 180.484375 172.886719 C 182.996094 177.734375 182.230469 183.632812 178.5625 187.675781 L 163.980469 203.746094 Z M 177.554688 184.691406 " fill-opacity="1" fill-rule="nonzero"/><g mask="url(#6aea1d670d)"><g transform="matrix(1, 0, 0, 1, 37, 117)"><g clip-path="url(#02bc1a64e8)"><g clip-path="url(#12847498d2)"><path fill="#fff743" d="M 110.011719 208.308594 C 110.011719 212.59375 108.546875 216.9375 105.425781 220.53125 L 80.96875 248.726562 C 83.007812 245.984375 110.625 208.328125 94.933594 196.574219 C 93.992188 195.867188 92.890625 195.253906 91.617188 194.75 C 89.390625 193.863281 86.640625 193.304688 83.289062 193.144531 C 44.902344 191.316406 29.550781 191.398438 35.550781 169.628906 C 39.300781 156.019531 34.539062 149.957031 30.449219 147.324219 C 28.457031 146.050781 28.300781 143.183594 30.078125 141.613281 L 36.882812 135.628906 L 27.984375 133.339844 C 24.394531 132.421875 22.453125 128.507812 23.929688 125.109375 C 25.738281 120.9375 26.804688 115.90625 22.664062 114.078125 C 18.574219 112.269531 11.289062 109.878906 5.46875 108.066406 C 1.351562 106.78125 -0.132812 101.734375 2.621094 98.425781 C 9.941406 89.664062 22.203125 74.296875 28.972656 62.066406 C 31.027344 58.359375 32.574219 54.941406 33.324219 52.082031 C 36.550781 39.839844 29.382812 18.03125 25.871094 1.28125 C 25.867188 1.273438 25.867188 1.265625 25.867188 1.261719 C 25.871094 1.261719 25.875 1.261719 25.875 1.261719 L 51.496094 33.152344 C 67.023438 52.46875 72.210938 78.121094 65.40625 101.953125 L 60.59375 118.816406 C 51.9375 149.140625 68.632812 180.914062 98.515625 190.992188 C 105.882812 194.078125 110.011719 201.113281 110.011719 208.308594 Z M 110.011719 208.308594 " fill-opacity="1" fill-rule="nonzero"/></g></g></g></g><path fill="#fff743" d="M 128.617188 311.75 C 126.390625 310.863281 123.640625 310.304688 120.289062 310.144531 C 81.902344 308.316406 66.550781 308.398438 72.550781 286.628906 C 76.300781 273.019531 71.539062 266.957031 67.449219 264.324219 C 65.457031 263.050781 65.300781 260.183594 67.078125 258.613281 L 73.882812 252.628906 L 64.984375 250.34375 C 61.394531 249.421875 59.453125 245.507812 60.929688 242.109375 C 62.738281 237.9375 63.804688 232.90625 59.664062 231.078125 C 55.574219 229.269531 48.289062 226.878906 42.46875 225.066406 C 38.351562 223.78125 36.867188 218.734375 39.621094 215.425781 C 46.941406 206.664062 59.203125 191.296875 65.972656 179.066406 C 76.519531 193.023438 82.507812 210.058594 82.855469 227.804688 L 83.222656 246.304688 C 83.71875 271.601562 97.683594 294.714844 119.84375 306.917969 Z M 128.617188 311.75 " fill-opacity="1" fill-rule="nonzero"/><g mask="url(#cfbea39dd4)"><g transform="matrix(1, 0, 0, 1, 151, 32)"><g clip-path="url(#50e380a34f)"><g clip-path="url(#8d3ee6a4ce)"><path fill="#fff743" d="M 155.128906 129.949219 L 150.902344 88.214844 C 154.398438 87.324219 156.984375 84.164062 156.984375 80.390625 C 156.984375 76.054688 153.574219 72.527344 149.289062 72.316406 L 146.949219 49.148438 C 149.007812 48.203125 150.398438 46.042969 150.183594 43.578125 C 149.957031 40.941406 147.839844 38.78125 145.210938 38.511719 C 143.816406 38.367188 142.515625 38.738281 141.46875 39.449219 C 135.753906 35.597656 124.804688 28.6875 110.46875 21.796875 C 109.363281 21.265625 108.222656 20.734375 107.046875 20.1875 C 107.441406 18.757812 107.488281 17.1875 106.910156 15.523438 C 105.835938 12.417969 103 10.167969 99.722656 9.980469 C 96.558594 9.800781 93.769531 11.445312 92.289062 13.953125 C 74.09375 6.96875 51.417969 0.832031 27.492188 0.597656 C 19.585938 0.527344 11.597656 1.300781 3.574219 2.898438 C 3.332031 3.738281 3.097656 4.59375 2.878906 5.453125 C 10.671875 3.839844 18.894531 2.925781 27.464844 3.015625 C 50.613281 3.246094 72.726562 9.042969 91.378906 16.238281 C 91.285156 16.636719 91.222656 17.046875 91.191406 17.464844 L 49.914062 20.644531 C 49.25 18.667969 47.386719 17.238281 45.183594 17.238281 C 43.371094 17.238281 41.785156 18.210938 40.914062 19.664062 L 2.269531 7.933594 C 2.089844 8.714844 1.914062 9.503906 1.757812 10.300781 L 40.210938 21.976562 C 40.207031 22.058594 40.203125 22.140625 40.203125 22.222656 C 40.203125 24.464844 41.675781 26.355469 43.710938 26.988281 L 42.640625 46.078125 C 40.75 46.238281 39.046875 47.046875 37.753906 48.28125 L 1.34375 12.472656 C 1.171875 13.453125 1.015625 14.429688 0.882812 15.414062 L 36.257812 50.203125 C 35.609375 51.367188 35.238281 52.707031 35.238281 54.132812 C 35.238281 56.332031 36.121094 58.324219 37.546875 59.785156 L 27.792969 72.074219 C 28.484375 72.492188 29.1875 72.902344 29.910156 73.308594 L 39.480469 61.25 C 40.621094 61.871094 41.933594 62.222656 43.332031 62.222656 C 44.800781 62.222656 46.179688 61.820312 47.367188 61.128906 L 74.332031 87.648438 C 73.898438 88.140625 73.484375 88.652344 73.105469 89.1875 C 86.800781 95.3125 97.597656 104.664062 106.058594 116.085938 C 106.878906 115.195312 107.625 114.230469 108.28125 113.203125 L 147.175781 135.144531 C 146.851562 136.003906 146.664062 136.925781 146.652344 137.894531 L 120.121094 141.503906 C 120.433594 142.269531 120.742188 143.042969 121.046875 143.820312 L 146.976562 140.292969 C 147.449219 141.925781 148.425781 143.339844 149.730469 144.367188 C 146.535156 150.027344 141.730469 158.628906 136.523438 168.273438 C 136.152344 168.1875 135.769531 168.136719 135.371094 168.136719 C 134.453125 168.136719 133.59375 168.386719 132.859375 168.820312 L 127.171875 163.007812 C 127.566406 164.535156 127.945312 166.078125 128.300781 167.621094 C 129.195312 171.46875 129.980469 175.359375 130.671875 179.265625 C 130.902344 180.574219 131.125 181.890625 131.332031 183.210938 C 132.25 181.449219 133.179688 179.683594 134.101562 177.941406 C 135.082031 178.199219 136.175781 178.199219 137.335938 177.679688 C 139.023438 176.921875 140.222656 175.304688 140.347656 173.464844 C 140.457031 171.835938 139.78125 170.371094 138.671875 169.386719 C 143.855469 159.78125 148.648438 151.207031 151.832031 145.566406 C 152.992188 146.011719 154.273438 146.210938 155.628906 146.058594 C 159.566406 145.617188 162.671875 142.28125 162.816406 138.320312 C 162.976562 133.851562 159.511719 130.164062 155.128906 129.949219 Z M 144.566406 49.660156 L 146.882812 72.558594 C 145.574219 72.898438 144.390625 73.554688 143.421875 74.445312 L 118.59375 54.515625 C 118.882812 53.878906 119.054688 53.175781 119.054688 52.433594 C 119.054688 52.296875 119.042969 52.164062 119.035156 52.03125 L 139.5 46.332031 C 140.363281 48.28125 142.304688 49.640625 144.566406 49.660156 Z M 106.039062 22.449219 C 121.699219 29.6875 133.636719 37.132812 139.792969 41.25 C 139.324219 42.042969 139.050781 42.964844 139.027344 43.953125 L 118.253906 49.730469 C 117.367188 48.355469 115.824219 47.449219 114.066406 47.449219 C 113.746094 47.449219 113.429688 47.480469 113.128906 47.539062 L 103.5 24.9375 C 104.519531 24.304688 105.386719 23.457031 106.039062 22.449219 Z M 45.050781 46.226562 L 46.121094 27.121094 C 48.160156 26.730469 49.75 25.109375 50.097656 23.058594 L 91.378906 19.878906 C 91.507812 20.4375 91.695312 20.96875 91.925781 21.476562 L 49.902344 49.429688 C 48.757812 47.828125 47.042969 46.664062 45.050781 46.226562 Z M 90.347656 80.390625 C 84.832031 80.390625 79.808594 82.480469 76.027344 85.917969 L 49.269531 59.609375 C 50.597656 58.164062 51.417969 56.246094 51.417969 54.132812 C 51.417969 53.246094 51.269531 52.394531 51.007812 51.601562 L 93.269531 23.488281 C 94.308594 24.628906 95.664062 25.46875 97.203125 25.871094 L 91.398438 80.417969 C 91.046875 80.398438 90.699219 80.390625 90.347656 80.390625 Z M 93.800781 80.671875 L 99.609375 26.128906 C 100.183594 26.105469 100.738281 26.019531 101.273438 25.882812 L 110.929688 48.558594 C 109.804688 49.472656 109.082031 50.863281 109.082031 52.433594 C 109.082031 53.863281 109.6875 55.148438 110.652344 56.058594 L 98.367188 81.957031 C 96.921875 81.367188 95.390625 80.933594 93.800781 80.671875 Z M 100.558594 82.992188 L 112.769531 57.242188 C 113.183594 57.351562 113.617188 57.421875 114.066406 57.421875 C 115.199219 57.421875 116.238281 57.035156 117.082031 56.402344 L 141.902344 76.328125 C 141.210938 77.527344 140.804688 78.910156 140.804688 80.390625 C 140.804688 80.9375 140.863281 81.472656 140.964844 81.988281 L 109.925781 93.285156 C 108.039062 88.894531 104.722656 85.269531 100.558594 82.992188 Z M 148.367188 133.039062 L 109.472656 111.101562 C 110.867188 108.265625 111.65625 105.078125 111.65625 101.699219 C 111.65625 99.566406 111.339844 97.503906 110.753906 95.5625 L 141.789062 84.261719 C 143.105469 86.667969 145.601562 88.316406 148.496094 88.457031 L 152.722656 130.191406 C 150.972656 130.640625 149.449219 131.65625 148.367188 133.039062 Z M 148.367188 133.039062 " fill-opacity="1" fill-rule="nonzero"/></g></g></g></g></svg>